<?xml version="1.0" encoding="UTF-8" standalone="no"?>
<!DOCTYPE svg PUBLIC "-//W3C//DTD SVG 1.1//EN" "http://www.w3.org/Graphics/SVG/1.1/DTD/svg11.dtd">
<svg xmlns="http://www.w3.org/2000/svg" version="1.1" viewBox="0.00 0.00 984.00 253.00">
<g stroke-width="2.00" fill="none" stroke-linecap="butt">
<path stroke="#b90bf6" vector-effect="non-scaling-stroke" d="
  M 38.94 127.91
  Q 39.01 126.30 40.13 124.53
  A 0.26 0.25 83.6 0 0 39.74 124.20
  C 38.92 125.13 33.19 125.70 31.86 126.05
  Q 31.51 126.14 31.50 126.49
  Q 31.50 126.68 31.52 126.89
  A 0.44 0.44 0.0 0 1 31.21 127.37
  L 21.38 130.37
  Q 20.83 130.54 20.69 131.10
  Q 20.46 132.11 19.35 132.27
  Q 18.96 132.32 19.01 132.70
  Q 19.12 133.76 18.79 134.76
  Q 18.44 135.80 18.46 134.70
  Q 18.60 128.22 18.45 121.75
  A 0.11 0.10 44.9 0 0 18.24 121.75
  L 18.04 136.51"
/>
<path stroke="#c408f7" vector-effect="non-scaling-stroke" d="
  M 881.17 155.75
  Q 880.83 140.88 881.05 126.00
  Q 881.08 124.00 880.59 121.39
  A 0.15 0.15 0.0 0 0 880.29 121.44
  Q 880.54 124.71 877.82 126.25
  A 0.14 0.14 0.0 0 0 877.89 126.51
  Q 878.07 126.50 878.26 126.50
  Q 878.96 126.48 878.48 126.99
  Q 868.40 137.90 857.40 147.88
  Q 856.85 148.38 856.55 147.70
  L 855.78 145.94
  Q 855.49 145.28 855.50 146.00
  Q 855.51 146.25 855.50 146.50
  A 0.15 0.13 50.8 0 1 855.22 146.45
  Q 855.34 136.75 855.21 127.06
  A 0.10 0.10 0.0 0 0 855.01 127.06
  L 854.82 139.01"
/>
</g>
<path fill="#252831" d="
  M 147.46 47.03
  Q 156.04 63.37 154.86 81.44
  C 152.78 113.24 120.48 130.20 92.28 131.07
  A 1.02 1.02 0.0 0 0 91.30 131.99
  Q 89.32 150.94 71.78 157.94
  Q 71.36 158.11 70.97 157.86
  Q 55.37 147.45 48.60 129.95
  Q 48.38 129.37 48.68 128.82
  L 81.55 69.03
  Q 81.77 68.62 81.37 68.37
  L 1.17 18.06
  Q -0.31 17.13 1.35 17.68
  L 93.60 48.19
  A 0.85 0.84 -56.7 0 0 94.44 48.01
  Q 99.64 43.20 106.38 40.90
  Q 106.93 40.71 107.12 40.16
  Q 114.22 19.56 103.71 0.83
  A 0.34 0.33 -6.1 0 1 104.10 0.35
  Q 124.71 6.35 131.63 26.67
  Q 131.79 27.14 132.27 27.01
  C 159.61 19.65 188.89 22.80 213.07 38.53
  A 0.48 0.48 0.0 0 1 212.81 39.42
  Q 206.07 39.51 200.84 43.32
  C 194.97 47.59 195.68 54.78 200.95 59.31
  C 205.23 62.97 213.14 67.27 217.78 71.23
  Q 232.48 83.75 237.59 102.91
  A 0.27 0.27 0.0 0 1 237.16 103.19
  C 234.53 101.18 225.89 96.24 222.76 98.63
  C 218.74 101.69 223.51 110.99 225.46 114.57
  C 231.74 126.06 240.27 139.70 243.36 150.94
  Q 248.35 169.09 241.61 187.46
  Q 240.23 191.21 240.37 187.22
  C 240.62 180.20 238.17 164.42 228.98 162.27
  C 221.20 160.45 218.14 169.20 219.53 175.50
  Q 222.70 189.93 223.01 203.24
  C 223.53 225.62 208.57 245.89 186.67 251.41
  Q 181.40 252.73 172.10 252.74
  Q 121.26 252.76 70.43 252.75
  C 57.92 252.75 49.62 251.48 39.90 245.24
  A 0.48 0.48 0.0 0 1 39.99 244.38
  C 84.93 227.51 122.10 188.72 113.24 137.62
  A 0.86 0.85 77.6 0 1 113.86 136.64
  C 143.53 128.81 173.54 99.88 160.56 66.16
  Q 156.37 55.27 147.76 46.80
  Q 146.88 45.93 147.46 47.03
  Z
  M 119.73 69.36
  C 111.69 61.67 102.41 69.39 105.54 79.09
  Q 105.69 79.54 105.92 79.14
  Q 110.45 71.59 119.35 70.51
  Q 120.74 70.34 119.73 69.36
  Z"
/>
<path fill="#e100fb" d="
  M 38.94 127.91
  Q 39.01 126.30 40.13 124.53
  A 0.26 0.25 83.6 0 0 39.74 124.20
  C 38.92 125.13 33.19 125.70 31.86 126.05
  Q 31.51 126.14 31.50 126.49
  Q 31.50 126.68 31.52 126.89
  A 0.44 0.44 0.0 0 1 31.21 127.37
  L 21.38 130.37
  Q 20.83 130.54 20.69 131.10
  Q 20.46 132.11 19.35 132.27
  Q 18.96 132.32 19.01 132.70
  Q 19.12 133.76 18.79 134.76
  Q 18.44 135.80 18.46 134.70
  Q 18.60 128.22 18.45 121.75
  A 0.11 0.10 44.9 0 0 18.24 121.75
  L 18.04 136.51
  Q 17.99 119.07 17.99 101.64
  Q 17.99 90.20 19.41 84.47
  Q 24.11 65.47 41.87 54.78
  A 0.89 0.89 0.0 0 1 42.80 54.79
  L 69.42 71.46
  Q 69.81 71.70 69.59 72.10
  L 38.94 127.91
  Z"
/>
<path fill="#252831" d="
  M 277.65 103.25
  C 277.65 89.20 294.44 91.06 303.45 91.59
  Q 303.98 91.62 303.98 92.16
  Q 304.05 122.72 303.95 153.25
  C 303.93 160.21 305.17 168.43 311.15 172.77
  C 315.83 176.17 322.94 176.49 328.50 174.96
  C 335.82 172.94 339.69 164.67 339.71 157.68
  Q 339.79 124.82 339.74 92.03
  A 0.53 0.52 -0.5 0 1 340.27 91.50
  L 365.70 91.50
  Q 366.20 91.50 366.20 92.00
  Q 366.36 143.94 366.24 158.99
  C 366.07 178.17 357.37 192.93 337.75 197.51
  C 309.78 204.04 278.17 195.16 277.88 160.56
  Q 277.64 131.91 277.65 103.25
  Z"
/>
<path fill="#252831" d="
  M 493.04 94.46
  Q 498.61 99.92 496.66 107.98
  A 0.68 0.67 6.4 0 1 496.00 108.50
  L 471.38 108.50
  Q 470.75 108.50 470.75 107.88
  L 470.75 92.27
  A 0.60 0.60 0.0 0 1 471.31 91.67
  C 477.36 91.22 489.01 90.51 493.04 94.46
  Z"
/>
<path fill="#e100fb" d="
  M 881.17 155.75
  Q 880.83 140.88 881.05 126.00
  Q 881.08 124.00 880.59 121.39
  A 0.15 0.15 0.0 0 0 880.29 121.44
  Q 880.54 124.71 877.82 126.25
  A 0.14 0.14 0.0 0 0 877.89 126.51
  Q 878.07 126.50 878.26 126.50
  Q 878.96 126.48 878.48 126.99
  Q 868.40 137.90 857.40 147.88
  Q 856.85 148.38 856.55 147.70
  L 855.78 145.94
  Q 855.49 145.28 855.50 146.00
  Q 855.51 146.25 855.50 146.50
  A 0.15 0.13 50.8 0 1 855.22 146.45
  Q 855.34 136.75 855.21 127.06
  A 0.10 0.10 0.0 0 0 855.01 127.06
  L 854.82 139.01
  Q 854.65 121.48 854.82 104.01
  C 854.96 88.94 870.76 90.99 880.70 91.61
  Q 881.21 91.65 881.21 92.16
  L 881.17 155.75
  Z"
/>
<path fill="#a70ff3" d="
  M 854.82 139.01
  L 855.01 127.06
  A 0.10 0.10 0.0 0 1 855.21 127.06
  Q 855.34 136.75 855.22 146.45
  A 0.15 0.13 50.8 0 0 855.50 146.50
  Q 855.51 146.25 855.50 146.00
  Q 855.49 145.28 855.78 145.94
  L 856.55 147.70
  Q 856.85 148.38 857.40 147.88
  Q 868.40 137.90 878.48 126.99
  Q 878.96 126.48 878.26 126.50
  Q 878.07 126.50 877.89 126.51
  A 0.14 0.14 0.0 0 1 877.82 126.25
  Q 880.54 124.71 880.29 121.44
  A 0.15 0.15 0.0 0 1 880.59 121.39
  Q 881.08 124.00 881.05 126.00
  Q 880.83 140.88 881.17 155.75
  C 881.83 165.00 884.42 173.49 894.47 175.37
  C 907.94 177.90 916.66 170.60 916.77 156.94
  Q 917.04 124.68 917.02 92.25
  Q 917.02 91.50 917.77 91.50
  L 942.70 91.50
  Q 943.22 91.50 943.22 92.01
  Q 943.32 125.18 943.22 158.24
  C 943.16 177.63 935.26 192.89 915.23 197.42
  C 900.06 200.85 879.35 200.40 867.20 189.84
  C 852.59 177.13 854.55 156.22 854.82 139.01
  Z"
/>
<path fill="#9015f0" d="
  M 984.00 91.80
  L 984.00 197.74
  L 958.33 197.70
  A 0.55 0.55 0.0 0 1 957.78 197.15
  Q 957.69 149.87 957.78 102.77
  C 957.80 89.37 973.81 90.94 984.00 91.80
  Z"
/>
<path fill="#252831" d="
  M 562.52 172.05
  C 565.70 168.20 583.84 169.07 588.73 169.41
  Q 589.27 169.45 589.13 169.97
  C 585.93 182.10 578.56 191.50 566.66 196.12
  C 552.59 201.57 532.67 200.58 521.22 189.31
  C 507.02 175.34 505.21 146.95 515.48 130.49
  Q 524.45 116.09 543.16 113.85
  C 564.64 111.27 583.42 121.23 588.44 143.20
  Q 588.57 143.75 588.00 143.75
  L 563.02 143.75
  Q 562.54 143.75 562.35 143.31
  C 557.23 131.21 540.00 132.77 536.89 145.74
  C 534.43 156.05 534.31 175.27 547.97 177.74
  Q 556.55 179.28 562.52 172.05
  Z"
/>
<path fill="#252831" d="
  M 601.11 141.70
  C 607.23 117.64 632.45 109.09 654.44 115.80
  C 668.32 120.04 677.28 132.16 679.59 146.47
  C 682.48 164.31 677.37 187.44 658.75 195.39
  Q 643.46 201.91 626.42 197.30
  C 601.77 190.63 595.54 163.61 601.11 141.70
  Z
  M 642.42 135.17
  C 624.36 132.63 624.09 155.54 626.58 166.72
  Q 629.49 179.76 642.88 177.73
  C 658.21 175.40 657.98 137.36 642.42 135.17
  Z"
/>
<path fill="#252831" d="
  M 389.19 123.94
  C 399.78 112.64 419.97 112.27 433.75 116.00
  C 449.39 120.23 456.05 133.79 456.25 149.07
  Q 456.56 173.16 456.51 197.27
  A 0.48 0.47 -90.0 0 1 456.04 197.75
  C 442.24 197.80 430.03 201.15 430.02 182.08
  Q 430.01 164.30 429.98 146.51
  C 429.95 131.28 406.59 132.14 406.55 146.07
  Q 406.45 171.68 406.51 197.22
  A 0.53 0.52 -0.5 0 1 405.98 197.75
  L 381.04 197.75
  A 0.51 0.51 0.0 0 1 380.53 197.25
  Q 380.43 174.43 380.50 151.77
  C 380.53 141.48 381.94 131.67 389.19 123.94
  Z"
/>
<path fill="#252831" d="
  M 692.62 148.00
  C 695.37 121.58 718.32 113.72 741.31 114.04
  A 1.21 1.21 0.0 0 1 742.50 115.25
  L 742.50 139.50
  Q 742.50 140.53 741.46 140.51
  C 733.69 140.33 723.29 139.18 719.44 147.46
  Q 718.07 150.43 718.03 158.88
  Q 717.95 178.07 718.02 197.22
  A 0.53 0.53 0.0 0 1 717.49 197.75
  L 692.75 197.75
  A 0.75 0.75 0.0 0 1 692.00 197.00
  C 691.99 181.02 690.97 163.91 692.62 148.00
  Z"
/>
<path fill="#252831" d="
  M 764.69 125.44
  C 776.19 110.55 808.58 110.49 822.26 122.05
  C 829.01 127.76 833.15 138.57 833.19 147.31
  Q 833.31 172.29 833.23 197.29
  A 0.44 0.44 0.0 0 1 832.79 197.73
  C 822.80 197.82 807.06 200.66 806.82 185.68
  Q 806.66 176.09 806.76 145.51
  C 806.79 133.79 789.45 132.13 784.78 141.09
  Q 783.43 143.68 783.41 148.60
  Q 783.30 172.94 783.51 197.21
  A 0.52 0.52 0.0 0 1 782.99 197.74
  L 758.04 197.75
  Q 757.56 197.75 757.56 197.27
  Q 757.42 172.65 757.39 148.01
  Q 757.38 134.89 764.69 125.44
  Z"
/>
<path fill="#252831" d="
  M 471.22 115.28
  C 479.51 115.20 496.62 112.44 496.73 126.07
  Q 497.03 161.71 497.03 197.37
  A 0.38 0.38 0.0 0 1 496.65 197.75
  L 471.38 197.75
  Q 470.75 197.75 470.75 197.12
  L 470.75 115.75
  A 0.47 0.47 0.0 0 1 471.22 115.28
  Z"
/>
<path fill="#9015f0" d="
  M 38.94 127.91
  C 43.80 146.81 54.20 156.98 69.82 167.90
  A 0.97 0.96 50.6 0 0 70.77 168.00
  C 85.16 161.88 94.47 156.18 98.82 140.42
  Q 98.95 139.93 99.42 139.75
  Q 101.52 138.91 103.85 139.18
  Q 104.30 139.24 104.38 139.68
  C 113.29 187.36 74.22 222.90 33.69 237.23
  C 32.79 237.55 31.56 238.67 30.49 237.51
  C 20.85 227.04 18.05 215.75 18.02 201.08
  Q 17.95 168.79 18.04 136.51
  L 18.24 121.75
  A 0.11 0.10 44.9 0 1 18.45 121.75
  Q 18.60 128.22 18.46 134.70
  Q 18.44 135.80 18.79 134.76
  Q 19.12 133.76 19.01 132.70
  Q 18.96 132.32 19.35 132.27
  Q 20.46 132.11 20.69 131.10
  Q 20.83 130.54 21.38 130.37
  L 31.21 127.37
  A 0.44 0.44 0.0 0 0 31.52 126.89
  Q 31.50 126.68 31.50 126.49
  Q 31.51 126.14 31.86 126.05
  C 33.19 125.70 38.92 125.13 39.74 124.20
  A 0.26 0.25 83.6 0 1 40.13 124.53
  Q 39.01 126.30 38.94 127.91
  Z"
/>
</svg>
