<?xml version="1.0" encoding="UTF-8" standalone="no"?>
<!DOCTYPE svg PUBLIC "-//W3C//DTD SVG 1.1//EN" "http://www.w3.org/Graphics/SVG/1.1/DTD/svg11.dtd">
<svg xmlns="http://www.w3.org/2000/svg" version="1.1" viewBox="0.00 0.00 300.00 45.00">
<path stroke="#0b95a3" stroke-width="2.00" fill="none" stroke-linecap="butt" vector-effect="non-scaling-stroke" d="
  M 60.31 5.64
  Q 51.76 10.36 42.75 9.21"
/>
<path fill="#047b8a" d="
  M 44.41 0.00
  L 45.06 0.00
  Q 48.24 0.52 50.24 0.27
  Q 57.65 -0.68 60.31 5.64
  Q 51.76 10.36 42.75 9.21
  Q 41.54 3.96 44.41 0.00
  Z"
/>
<path fill="#09060c" fill-opacity="0.973" d="
  M 299.28 5.96
  A 5.23 5.23 0.0 0 1 294.05 11.19
  A 5.23 5.23 0.0 0 1 288.82 5.96
  A 5.23 5.23 0.0 0 1 294.05 0.73
  A 5.23 5.23 0.0 0 1 299.28 5.96
  Z
  M 298.52 6.04
  A 4.54 4.54 0.0 0 0 293.98 1.50
  A 4.54 4.54 0.0 0 0 289.44 6.04
  A 4.54 4.54 0.0 0 0 293.98 10.58
  A 4.54 4.54 0.0 0 0 298.52 6.04
  Z"
/>
<path fill="#09060c" fill-opacity="0.973" d="
  M 292.81 6.82
  L 292.48 8.10
  Q 292.10 9.63 291.76 8.09
  Q 291.33 6.12 291.64 4.13
  Q 291.72 3.61 292.21 3.43
  Q 294.42 2.57 295.85 4.25
  Q 296.28 4.76 295.80 5.21
  Q 294.58 6.39 295.55 7.65
  Q 296.28 8.61 295.51 8.52
  Q 295.35 8.50 295.21 8.50
  Q 295.00 8.51 294.88 8.32
  L 293.85 6.66
  Q 293.14 5.50 292.81 6.82
  Z
  M 294.6984 5.2303
  A 1.02 0.93 18.3 0 0 294.0220 4.0270
  A 1.02 0.93 18.3 0 0 292.7616 4.5897
  A 1.02 0.93 18.3 0 0 293.4380 5.7930
  A 1.02 0.93 18.3 0 0 294.6984 5.2303
  Z"
/>
<path fill="#12aebb" d="
  M 42.75 9.21
  Q 51.76 10.36 60.31 5.64
  Q 59.61 7.74 59.77 9.37
  Q 59.82 9.85 60.30 9.81
  Q 67.14 9.25 67.46 16.09
  Q 68.00 27.55 57.23 32.17
  Q 56.84 32.34 56.76 32.75
  L 55.13 41.20
  Q 55.04 41.70 54.61 42.00
  Q 50.15 45.09 44.69 45.00
  L 42.94 45.00
  Q 36.78 44.14 30.94 42.01
  C 25.08 39.87 19.86 39.87 13.89 40.35
  Q 13.33 40.39 12.96 39.98
  L 0.41 26.16
  A 0.90 0.89 39.2 0 1 0.30 25.13
  L 11.34 5.43
  Q 11.60 4.96 12.13 4.84
  C 18.22 3.55 23.62 3.82 29.18 6.66
  Q 35.47 9.86 42.75 9.21
  Z
  M 19.6463 7.0497
  A 1.97 0.59 -3.5 0 0 17.6440 6.5811
  A 1.97 0.59 -3.5 0 0 15.7137 7.2903
  A 1.97 0.59 -3.5 0 0 17.7160 7.7589
  A 1.97 0.59 -3.5 0 0 19.6463 7.0497
  Z
  M 14.23 6.76
  Q 12.51 7.04 11.87 8.64
  Q 11.41 9.79 12.41 9.04
  L 14.52 7.45
  A 0.39 0.38 -67.9 0 0 14.23 6.76
  Z
  M 20.93 7.42
  Q 22.21 8.50 23.62 7.60
  Q 24.44 7.08 23.49 6.88
  Q 22.37 6.63 21.13 6.77
  Q 20.27 6.87 20.93 7.42
  Z
  M 28.6382 9.0977
  A 1.86 0.51 21.7 0 0 27.0986 7.9361
  A 1.86 0.51 21.7 0 0 25.1818 7.7223
  A 1.86 0.51 21.7 0 0 26.7214 8.8839
  A 1.86 0.51 21.7 0 0 28.6382 9.0977
  Z
  M 57.15 8.34
  L 56.10 9.39
  A 0.47 0.47 0.0 0 0 56.42 10.19
  Q 58.12 10.22 57.69 8.49
  A 0.32 0.32 0.0 0 0 57.15 8.34
  Z
  M 29.82 10.17
  L 32.51 11.40
  Q 33.62 11.91 32.87 10.96
  Q 31.75 9.54 29.96 9.54
  Q 28.44 9.54 29.82 10.17
  Z
  M 55.5005 10.2164
  A 1.86 0.53 -23.9 0 0 53.5853 10.4854
  A 1.86 0.53 -23.9 0 0 52.0995 11.7236
  A 1.86 0.53 -23.9 0 0 54.0147 11.4546
  A 1.86 0.53 -23.9 0 0 55.5005 10.2164
  Z
  M 11.33 10.28
  Q 9.90 11.82 9.65 13.90
  Q 9.52 15.03 10.08 14.04
  L 11.94 10.73
  A 0.38 0.38 0.0 0 0 11.33 10.28
  Z
  M 37.8593 11.9842
  A 2.06 0.51 9.9 0 0 35.9177 11.1276
  A 2.06 0.51 9.9 0 0 33.8007 11.2758
  A 2.06 0.51 9.9 0 0 35.7423 12.1324
  A 2.06 0.51 9.9 0 0 37.8593 11.9842
  Z
  M 51.0301 11.6218
  A 1.80 0.55 -6.0 0 0 49.1825 11.2630
  A 1.80 0.55 -6.0 0 0 47.4499 11.9982
  A 1.80 0.55 -6.0 0 0 49.2975 12.3570
  A 1.80 0.55 -6.0 0 0 51.0301 11.6218
  Z
  M 42.0789 12.0656
  A 1.88 0.54 2.0 0 0 40.2188 11.4603
  A 1.88 0.54 2.0 0 0 38.3211 11.9344
  A 1.88 0.54 2.0 0 0 40.1812 12.5397
  A 1.88 0.54 2.0 0 0 42.0789 12.0656
  Z
  M 47.0097 11.9446
  A 2.03 0.52 -1.0 0 0 44.9709 11.4601
  A 2.03 0.52 -1.0 0 0 42.9503 12.0154
  A 2.03 0.52 -1.0 0 0 44.9891 12.4999
  A 2.03 0.52 -1.0 0 0 47.0097 11.9446
  Z
  M 56.53 11.57
  Q 56.06 12.88 56.27 14.31
  Q 56.48 15.68 57.01 14.40
  Q 57.54 13.09 57.38 11.67
  A 0.44 0.44 0.0 0 0 56.53 11.57
  Z
  M 59.22 13.50
  L 57.43 27.24
  A 0.77 0.76 -11.7 0 0 58.58 27.99
  Q 64.03 24.78 65.01 19.21
  C 65.67 15.44 64.51 12.11 59.91 12.84
  Q 59.29 12.93 59.22 13.50
  Z
  M 7.4714 18.0764
  A 1.93 0.51 119.1 0 0 8.8556 16.6380
  A 1.93 0.51 119.1 0 0 9.3486 14.7036
  A 1.93 0.51 119.1 0 0 7.9644 16.1420
  A 1.93 0.51 119.1 0 0 7.4714 18.0764
  Z
  M 56.04 16.29
  Q 55.44 18.08 55.91 20.03
  Q 56.32 21.70 56.42 19.98
  Q 56.52 18.23 56.73 16.45
  A 0.36 0.35 57.8 0 0 56.04 16.29
  Z
  M 5.1379 22.4684
  A 1.89 0.49 119.9 0 0 6.5048 21.0743
  A 1.89 0.49 119.9 0 0 7.0221 19.1916
  A 1.89 0.49 119.9 0 0 5.6552 20.5857
  A 1.89 0.49 119.9 0 0 5.1379 22.4684
  Z
  M 55.2970 24.3388
  A 1.90 0.45 100.4 0 0 56.0826 22.5512
  A 1.90 0.45 100.4 0 0 55.9830 20.6012
  A 1.90 0.45 100.4 0 0 55.1974 22.3888
  A 1.90 0.45 100.4 0 0 55.2970 24.3388
  Z
  M 12.83 24.56
  A 2.29 2.29 0.0 0 0 10.54 22.27
  A 2.29 2.29 0.0 0 0 8.25 24.56
  A 2.29 2.29 0.0 0 0 10.54 26.85
  A 2.29 2.29 0.0 0 0 12.83 24.56
  Z
  M 6.90 27.86
  C 5.81 26.34 4.21 26.78 4.86 23.96
  Q 5.05 23.10 4.43 23.73
  L 3.59 24.56
  Q 3.14 25.02 3.56 25.50
  Q 8.91 31.57 14.14 37.72
  C 14.72 38.41 15.72 38.88 16.43 38.21
  Q 16.88 37.79 16.29 37.58
  C 13.27 36.53 8.57 30.18 6.90 27.86
  Z
  M 54.44 28.73
  A 0.39 0.38 54.5 0 0 55.20 28.86
  L 55.82 25.98
  Q 55.87 25.73 55.64 25.64
  Q 55.43 25.56 55.21 25.49
  Q 54.82 25.38 54.77 25.79
  L 54.44 28.73
  Z
  M 55.05 31.14
  Q 55.37 30.07 54.47 30.73
  Q 53.34 31.55 53.91 33.32
  Q 54.17 34.10 54.40 33.31
  L 55.05 31.14
  Z
  M 53.56 35.29
  L 53.01 37.83
  Q 52.76 39.00 53.51 38.07
  Q 54.53 36.81 54.10 35.27
  Q 53.79 34.21 53.56 35.29
  Z
  M 21.4098 37.8706
  A 1.87 0.66 -0.9 0 0 19.5296 37.2401
  A 1.87 0.66 -0.9 0 0 17.6702 37.9294
  A 1.87 0.66 -0.9 0 0 19.5504 38.5599
  A 1.87 0.66 -0.9 0 0 21.4098 37.8706
  Z
  M 26.0378 38.2977
  A 1.78 0.61 6.7 0 0 24.3412 37.4842
  A 1.78 0.61 6.7 0 0 22.5022 37.8823
  A 1.78 0.61 6.7 0 0 24.1988 38.6958
  A 1.78 0.61 6.7 0 0 26.0378 38.2977
  Z
  M 30.6886 39.4947
  A 1.82 0.59 16.1 0 0 29.1036 38.4231
  A 1.82 0.59 16.1 0 0 27.1914 38.4853
  A 1.82 0.59 16.1 0 0 28.7764 39.5569
  A 1.82 0.59 16.1 0 0 30.6886 39.4947
  Z
  M 49.80 41.52
  A 0.29 0.29 0.0 0 0 50.03 42.04
  Q 52.23 41.60 53.21 39.60
  Q 53.65 38.70 52.85 39.29
  L 49.80 41.52
  Z
  M 33.67 41.04
  Q 34.34 41.64 35.20 41.42
  Q 36.28 41.14 35.24 40.72
  L 32.01 39.41
  Q 31.01 39.01 31.47 39.99
  Q 31.88 40.86 32.72 40.75
  Q 33.26 40.68 33.67 41.04
  Z
  M 39.7820 42.2576
  A 1.93 0.55 12.8 0 0 38.0219 41.2937
  A 1.93 0.55 12.8 0 0 36.0180 41.4024
  A 1.93 0.55 12.8 0 0 37.7781 42.3663
  A 1.93 0.55 12.8 0 0 39.7820 42.2576
  Z
  M 48.94 41.57
  Q 46.95 41.55 45.19 42.38
  Q 43.97 42.95 45.31 43.00
  Q 47.29 43.06 49.08 42.36
  A 0.41 0.41 0.0 0 0 48.94 41.57
  Z
  M 41.00 42.64
  Q 42.50 43.62 44.08 42.90
  Q 44.99 42.48 44.02 42.22
  Q 42.62 41.83 41.14 42.03
  Q 40.25 42.15 41.00 42.64
  Z"
/>
<path fill="#515556" fill-opacity="0.953" d="
  M 77.16 6.40
  A 0.85 0.85 0.0 0 1 78.01 5.55
  L 85.08 5.55
  A 8.13 7.98 -90.0 0 1 93.06 13.68
  L 93.06 29.68
  A 8.13 7.98 90.0 0 1 85.08 37.81
  L 78.01 37.81
  A 0.85 0.85 0.0 0 1 77.16 36.96
  L 77.16 6.40
  Z
  M 82.22 10.74
  L 82.22 32.52
  A 0.75 0.75 0.0 0 0 82.97 33.27
  L 84.64 33.27
  A 3.21 3.14 -90.0 0 0 87.78 30.06
  L 87.78 13.20
  A 3.21 3.14 90.0 0 0 84.64 9.99
  L 82.97 9.99
  A 0.75 0.75 0.0 0 0 82.22 10.74
  Z"
/>
<path fill="#515556" fill-opacity="0.953" d="
  M 226.63 14.95
  Q 224.25 25.76 222.55 36.68
  Q 222.47 37.16 222.05 37.42
  C 219.88 38.72 218.89 37.47 218.57 35.39
  Q 217.05 25.47 214.97 15.70
  Q 214.50 13.51 214.50 15.75
  L 214.50 37.25
  Q 214.50 37.75 214.00 37.75
  L 210.62 37.75
  Q 210.00 37.75 210.00 37.12
  L 210.00 6.24
  Q 210.00 5.54 210.70 5.53
  L 216.37 5.49
  Q 217.00 5.49 217.12 6.11
  L 220.48 24.53
  A 0.34 0.34 0.0 0 0 221.14 24.53
  L 224.59 6.06
  Q 224.69 5.49 225.26 5.50
  L 230.85 5.51
  Q 231.50 5.51 231.50 6.16
  L 231.50 37.25
  Q 231.50 37.75 231.00 37.75
  L 227.95 37.75
  A 1.26 1.26 0.0 0 1 226.69 36.47
  L 227.00 14.99
  Q 227.02 13.16 226.63 14.95
  Z"
/>
<path fill="#515556" fill-opacity="0.953" d="
  M 111.03 12.15
  C 106.14 15.48 113.34 21.03 115.58 23.61
  C 128.38 38.35 101.72 44.76 104.68 28.39
  Q 104.79 27.75 105.44 27.75
  L 107.73 27.75
  Q 108.91 27.75 108.89 28.92
  Q 108.85 33.01 110.98 33.99
  Q 112.97 34.90 114.19 32.43
  C 116.82 27.13 101.34 20.99 105.36 12.15
  C 107.78 6.82 116.25 6.44 117.98 12.55
  Q 118.62 14.78 118.49 17.14
  Q 118.46 17.73 117.86 17.73
  L 114.81 17.76
  Q 114.17 17.76 114.23 17.13
  Q 114.43 14.89 113.47 12.83
  A 1.66 1.66 0.0 0 0 111.03 12.15
  Z"
/>
<path fill="#515556" fill-opacity="0.953" d="
  M 127.01 12.80
  A 1.93 1.92 -18.8 0 0 126.25 14.33
  L 126.25 32.01
  A 2.00 1.99 -86.4 0 0 127.99 33.99
  C 132.22 34.54 131.27 29.60 131.25 27.15
  Q 131.24 26.52 131.87 26.52
  L 134.90 26.49
  Q 135.44 26.49 135.53 27.02
  Q 136.30 31.71 135.29 34.28
  C 133.33 39.26 125.05 39.47 122.44 34.71
  Q 121.49 32.98 121.50 28.60
  C 121.51 21.91 118.53 5.14 131.53 8.51
  C 135.65 9.57 136.12 14.79 135.60 18.75
  Q 135.53 19.25 135.03 19.25
  L 131.99 19.25
  Q 131.33 19.25 131.28 18.59
  C 131.16 16.95 131.61 9.27 127.01 12.80
  Z"
/>
<path fill="#515556" fill-opacity="0.953" d="
  M 153.4860 31.2328
  A 6.96 6.96 0.0 0 1 146.5138 38.1807
  L 145.7138 38.1793
  A 6.96 6.96 0.0 0 1 138.7660 31.2071
  L 138.7940 15.1472
  A 6.96 6.96 0.0 0 1 145.7662 8.1993
  L 146.5662 8.2007
  A 6.96 6.96 0.0 0 1 153.5140 15.1729
  L 153.4860 31.2328
  Z
  M 148.74 14.76
  A 2.53 2.53 0.0 0 0 146.21 12.23
  L 146.05 12.23
  A 2.53 2.53 0.0 0 0 143.52 14.76
  L 143.52 31.48
  A 2.53 2.53 0.0 0 0 146.05 34.01
  L 146.21 34.01
  A 2.53 2.53 0.0 0 0 148.74 31.48
  L 148.74 14.76
  Z"
/>
<path fill="#515556" fill-opacity="0.953" d="
  M 264.43 36.33
  Q 262.49 38.25 260.74 38.24
  C 251.79 38.17 253.32 28.31 253.48 21.45
  C 253.66 13.84 252.88 7.84 262.21 8.19
  C 266.95 8.37 268.31 13.99 267.52 18.25
  Q 267.43 18.75 266.92 18.75
  L 263.82 18.75
  Q 263.26 18.75 263.25 18.19
  Q 263.23 16.67 263.30 15.26
  C 263.43 12.39 260.35 11.07 258.55 13.41
  Q 258.25 13.81 258.25 14.31
  L 258.47 32.37
  A 1.65 1.64 -5.3 0 0 260.41 33.97
  C 264.36 33.28 263.78 30.55 263.37 27.20
  Q 263.29 26.54 262.64 26.63
  L 261.39 26.80
  Q 260.64 26.90 260.60 26.15
  L 260.48 23.69
  Q 260.44 23.00 261.13 23.00
  L 267.25 23.00
  Q 268.00 23.00 268.00 23.75
  L 268.00 36.61
  Q 268.00 37.16 267.60 37.54
  Q 267.25 37.87 266.75 37.74
  Q 266.71 37.73 265.95 37.30
  Q 265.36 36.97 265.52 36.22
  Q 265.77 35.00 264.43 36.33
  Z"
/>
<path fill="#515556" fill-opacity="0.953" d="
  M 279.81 12.36
  Q 276.96 11.24 276.30 13.84
  C 275.06 18.75 284.94 23.56 285.56 29.86
  C 286.70 41.53 269.11 40.72 271.71 28.34
  Q 271.83 27.75 272.43 27.75
  L 275.23 27.75
  Q 275.93 27.75 275.81 28.44
  Q 275.37 31.00 276.59 33.33
  A 2.00 2.00 0.0 0 0 279.70 33.90
  C 284.03 30.02 276.84 24.31 274.26 21.49
  C 264.42 10.72 283.87 0.06 285.56 16.26
  Q 285.72 17.75 284.23 17.75
  L 281.78 17.75
  Q 281.27 17.75 281.19 17.25
  L 280.53 13.25
  Q 280.42 12.60 279.81 12.36
  Z"
/>
<rect fill="#4d5151" fill-opacity="0.910" x="96.50" y="8.50" width="4.76" height="29.26" rx="0.59"/>
<path fill="#4d5151" fill-opacity="0.910" d="
  M 162.48 33.70
  C 164.91 34.90 166.26 33.28 166.26 30.91
  Q 166.25 20.14 166.25 9.24
  Q 166.25 8.52 166.97 8.51
  L 170.41 8.49
  Q 171.03 8.49 171.04 9.12
  Q 171.24 18.29 171.11 27.41
  C 171.03 32.93 170.71 38.17 163.58 38.15
  C 157.40 38.14 156.48 33.30 156.49 27.96
  Q 156.52 18.59 156.49 9.25
  Q 156.49 8.52 157.22 8.51
  L 160.63 8.49
  Q 161.27 8.49 161.27 9.13
  L 161.24 31.70
  A 2.24 2.23 13.3 0 0 162.48 33.70
  Z"
/>
<path fill="#4d5151" fill-opacity="0.910" d="
  M 179.20 37.75
  L 175.60 37.75
  A 0.35 0.35 0.0 0 1 175.25 37.40
  L 175.25 8.87
  A 0.35 0.35 0.0 0 1 175.60 8.52
  L 179.25 8.49
  A 0.35 0.35 0.0 0 1 179.58 8.73
  L 185.09 24.57
  A 0.35 0.35 0.0 0 0 185.77 24.45
  L 185.71 8.84
  A 0.35 0.35 0.0 0 1 186.06 8.49
  L 189.50 8.52
  A 0.35 0.35 0.0 0 1 189.85 8.87
  L 189.74 37.38
  A 0.35 0.35 0.0 0 1 189.39 37.73
  L 186.31 37.76
  A 0.35 0.35 0.0 0 1 185.98 37.53
  L 180.08 21.14
  A 0.35 0.35 0.0 0 0 179.40 21.26
  L 179.55 37.40
  A 0.35 0.35 0.0 0 1 179.20 37.75
  Z"
/>
<path fill="#4d5151" fill-opacity="0.910" d="
  M 196.92 12.64
  L 192.83 12.79
  A 0.60 0.60 0.0 0 1 192.21 12.12
  L 192.56 9.03
  A 0.60 0.60 0.0 0 1 193.16 8.50
  L 206.65 8.50
  A 0.60 0.60 0.0 0 1 207.25 9.10
  L 207.25 12.15
  A 0.60 0.60 0.0 0 1 206.65 12.75
  L 202.85 12.75
  A 0.60 0.60 0.0 0 0 202.25 13.35
  L 202.25 37.15
  A 0.60 0.60 0.0 0 1 201.65 37.75
  L 198.08 37.75
  A 0.60 0.60 0.0 0 1 197.48 37.15
  L 197.54 13.24
  A 0.60 0.60 0.0 0 0 196.92 12.64
  Z"
/>
<path fill="#515556" fill-opacity="0.953" d="
  M 244.60 33.60
  A 1.57 1.56 77.6 0 0 245.50 32.18
  L 245.50 9.13
  Q 245.50 8.50 246.12 8.50
  L 249.55 8.50
  Q 250.25 8.50 250.25 9.19
  C 250.25 14.47 251.57 31.58 249.00 35.36
  C 246.41 39.18 239.31 39.14 236.87 35.04
  C 234.41 30.90 235.74 14.62 235.77 9.18
  Q 235.77 8.50 236.45 8.50
  L 239.95 8.50
  Q 240.51 8.50 240.51 9.07
  Q 240.47 19.92 240.52 30.73
  C 240.54 33.35 241.94 34.87 244.60 33.60
  Z"
/>
</svg>
