<?xml version="1.0" encoding="UTF-8" standalone="no"?>
<!DOCTYPE svg PUBLIC "-//W3C//DTD SVG 1.1//EN" "http://www.w3.org/Graphics/SVG/1.1/DTD/svg11.dtd">
<svg xmlns="http://www.w3.org/2000/svg" version="1.1" viewBox="0.00 0.00 413.00 143.00">
<path fill="#b62126" d="
  M 62.19 73.62
  A 0.74 0.73 -14.6 0 0 62.57 72.98
  L 62.33 21.84
  A 1.34 1.33 90.0 0 1 63.66 20.50
  L 75.61 20.50
  Q 76.72 20.50 76.72 21.61
  L 76.71 109.94
  A 1.01 1.00 87.2 0 1 75.81 110.94
  L 61.17 112.45
  A 1.34 1.33 -12.7 0 1 59.77 111.57
  L 42.94 64.51
  A 0.40 0.40 0.0 0 0 42.16 64.65
  L 42.29 113.69
  A 1.05 1.05 0.0 0 1 41.39 114.73
  L 28.80 116.47
  A 0.93 0.93 0.0 0 1 27.75 115.55
  L 27.75 21.25
  A 0.76 0.76 0.0 0 1 28.51 20.49
  L 42.22 20.52
  Q 42.73 20.52 42.89 21.00
  C 44.47 25.71 61.07 74.24 62.19 73.62
  Z"
/>
<path fill="#b62126" d="
  M 108.90 94.33
  L 128.63 93.23
  A 0.64 0.64 0.0 0 1 129.31 93.87
  L 129.22 106.18
  A 0.64 0.64 0.0 0 1 128.63 106.81
  L 93.93 109.23
  A 0.64 0.64 0.0 0 1 93.25 108.59
  L 93.25 21.14
  A 0.64 0.64 0.0 0 1 93.89 20.50
  L 128.85 20.50
  A 0.64 0.64 0.0 0 1 129.49 21.14
  L 129.50 33.86
  A 0.64 0.64 0.0 0 1 128.86 34.50
  L 108.89 34.50
  A 0.64 0.64 0.0 0 0 108.25 35.14
  L 108.25 57.86
  A 0.64 0.64 0.0 0 0 108.89 58.50
  L 125.86 58.50
  A 0.64 0.64 0.0 0 1 126.50 59.14
  L 126.50 71.36
  A 0.64 0.64 0.0 0 1 125.86 72.00
  L 108.91 72.00
  A 0.64 0.64 0.0 0 0 108.27 72.64
  L 108.22 93.69
  A 0.64 0.64 0.0 0 0 108.90 94.33
  Z"
/>
<path fill="#b62126" d="
  M 143.50 33.55
  L 143.64 21.43
  A 0.94 0.94 0.0 0 1 144.58 20.50
  L 186.58 20.50
  A 0.94 0.94 0.0 0 1 187.52 21.45
  L 187.42 33.57
  A 0.94 0.94 0.0 0 1 186.48 34.50
  L 173.94 34.50
  A 0.94 0.94 0.0 0 0 173.00 35.44
  L 173.00 104.25
  A 0.94 0.94 0.0 0 1 172.09 105.19
  L 159.16 105.58
  A 0.94 0.94 0.0 0 1 158.19 104.64
  L 158.22 35.44
  A 0.94 0.94 0.0 0 0 157.28 34.50
  L 144.44 34.50
  A 0.94 0.94 0.0 0 1 143.50 33.55
  Z"
/>
<path fill="#b62126" d="
  M 217.81 58.50
  L 234.45 58.50
  A 0.80 0.80 0.0 0 1 235.25 59.30
  L 235.25 71.20
  A 0.80 0.80 0.0 0 1 234.45 72.00
  L 217.78 72.00
  A 0.80 0.80 0.0 0 0 216.98 72.80
  L 217.01 103.70
  A 0.80 0.80 0.0 0 1 216.21 104.50
  L 202.79 104.50
  A 0.80 0.80 0.0 0 1 201.99 103.70
  L 202.00 21.30
  A 0.80 0.80 0.0 0 1 202.80 20.50
  L 237.45 20.50
  A 0.80 0.80 0.0 0 1 238.25 21.30
  L 238.25 33.70
  A 0.80 0.80 0.0 0 1 237.45 34.50
  L 217.78 34.50
  A 0.80 0.80 0.0 0 0 216.98 35.30
  L 217.01 57.70
  A 0.80 0.80 0.0 0 0 217.81 58.50
  Z"
/>
<path fill="#b62126" d="
  M 268.78 92.35
  L 288.70 93.62
  A 0.59 0.59 0.0 0 1 289.25 94.21
  L 289.25 106.71
  A 0.59 0.59 0.0 0 1 288.63 107.30
  L 253.81 105.39
  A 0.59 0.59 0.0 0 1 253.25 104.80
  L 253.24 21.09
  A 0.59 0.59 0.0 0 1 253.83 20.50
  L 267.67 20.50
  A 0.59 0.59 0.0 0 1 268.26 21.09
  L 268.23 91.76
  A 0.59 0.59 0.0 0 0 268.78 92.35
  Z"
/>
<rect fill="#b62126" x="303.50" y="20.56" width="15.26" height="88.40" rx="0.56"/>
<path fill="#b62126" d="
  M 355.22 86.68
  C 352.25 94.45 349.17 104.40 344.66 111.46
  Q 344.33 111.98 343.70 111.92
  L 330.96 110.55
  A 0.57 0.57 0.0 0 1 330.49 109.78
  Q 339.04 87.45 348.46 65.49
  Q 348.58 65.20 348.48 64.91
  L 333.12 21.79
  A 0.95 0.94 80.0 0 1 334.00 20.53
  L 347.11 20.48
  Q 348.07 20.48 348.39 21.39
  L 356.40 44.07
  A 0.37 0.37 0.0 0 0 357.10 44.08
  L 366.30 21.19
  A 1.09 1.08 -79.3 0 1 367.31 20.50
  L 381.21 20.50
  A 0.68 0.68 0.0 0 1 381.83 21.46
  Q 372.11 43.11 363.95 65.39
  A 1.31 1.28 46.3 0 0 363.94 66.26
  L 381.51 115.69
  Q 381.67 116.14 381.19 116.20
  C 378.99 116.49 376.61 115.73 374.89 115.61
  Q 370.59 115.30 366.38 114.34
  A 0.95 0.94 -2.8 0 1 365.70 113.73
  L 356.16 86.69
  A 0.50 0.50 0.0 0 0 355.22 86.68
  Z"
/>
</svg>
