<?xml version="1.0" encoding="UTF-8" standalone="no"?>
<!DOCTYPE svg PUBLIC "-//W3C//DTD SVG 1.1//EN" "http://www.w3.org/Graphics/SVG/1.1/DTD/svg11.dtd">
<svg xmlns="http://www.w3.org/2000/svg" version="1.1" viewBox="0.00 0.00 277.00 41.00">
<g stroke-width="2.00" fill="none" stroke-linecap="butt">
<path stroke="#5284a9" stroke-opacity="0.882" vector-effect="non-scaling-stroke" d="
  M 106.39 23.69
  Q 106.20 23.73 106.02 23.77"
/>
<path stroke="#dcdcdc" stroke-opacity="0.882" vector-effect="non-scaling-stroke" d="
  M 106.02 23.77
  Q 102.57 23.38 102.64 20.04
  A 1.68 1.68 0.0 0 0 99.47 19.23
  Q 96.92 24.15 98.49 29.56
  Q 98.65 30.09 99.20 30.05
  L 102.76 29.83
  Q 103.20 29.80 103.57 30.03
  Q 104.45 30.58 105.58 30.74"
/>
<path stroke="#5889ab" stroke-opacity="0.953" vector-effect="non-scaling-stroke" d="
  M 108.50 24.76
  Q 108.45 26.17 109.23 26.76
  Q 109.73 27.14 109.87 26.53
  L 110.17 25.14"
/>
<path stroke="#cbcccd" stroke-opacity="0.792" vector-effect="non-scaling-stroke" d="
  M 123.06 30.70
  Q 119.79 25.84 116.23 30.72"
/>
<path stroke="#7aa6c6" vector-effect="non-scaling-stroke" d="
  M 106.02 23.77
  Q 105.12 25.48 105.12 27.42
  A 0.47 0.46 -22.2 0 0 105.91 27.75
  L 107.10 26.57
  A 0.39 0.38 -32.2 0 1 107.74 26.71
  Q 108.32 28.37 110.19 27.95
  Q 110.69 27.84 110.91 27.38
  Q 111.12 26.96 111.40 26.58
  A 0.37 0.37 0.0 0 1 112.06 26.89
  L 111.73 28.42
  A 0.47 0.47 0.0 0 0 112.49 28.88
  Q 113.67 27.86 114.01 26.41
  Q 114.13 25.91 113.63 25.81
  L 110.17 25.14"
/>
<path stroke="#d7d9da" stroke-opacity="0.953" vector-effect="non-scaling-stroke" d="
  M 110.17 25.14
  Q 109.44 24.70 108.50 24.76"
/>
<path stroke="#7aa6c6" vector-effect="non-scaling-stroke" d="
  M 108.50 24.76
  Q 108.34 24.87 108.10 24.09"
/>
<path stroke="#dcdcdc" stroke-opacity="0.882" vector-effect="non-scaling-stroke" d="
  M 108.10 24.09
  Q 110.13 23.41 110.86 21.60"
/>
<path stroke="#868fb0" vector-effect="non-scaling-stroke" d="
  M 110.86 21.60
  Q 111.07 21.62 111.27 21.64"
/>
<path stroke="#80c8e6" vector-effect="non-scaling-stroke" d="
  M 111.27 21.64
  Q 112.43 23.26 113.80 22.72
  A 0.98 0.98 0.0 0 0 114.43 21.88
  L 114.53 20.57
  Q 114.56 20.15 114.94 19.97
  Q 117.52 18.67 120.26 18.99"
/>
<path stroke="#5284a9" stroke-opacity="0.882" vector-effect="non-scaling-stroke" d="
  M 108.10 24.09
  L 107.71 23.50"
/>
<path stroke="#1363a2" vector-effect="non-scaling-stroke" d="
  M 118.31 14.22
  Q 116.98 17.78 113.07 17.76
  Q 112.56 17.75 112.40 18.24
  L 111.27 21.64"
/>
<path stroke="#606a90" stroke-opacity="0.882" vector-effect="non-scaling-stroke" d="
  M 110.86 21.60
  Q 110.30 21.62 109.53 20.10"
/>
<path stroke="#d7d9da" stroke-opacity="0.953" vector-effect="non-scaling-stroke" d="
  M 128.14 30.74
  C 130.14 25.51 129.58 19.77 129.22 13.95
  C 129.14 12.56 128.45 11.76 127.83 10.57
  Q 127.62 10.15 127.16 10.06
  C 123.72 9.36 122.66 11.35 122.56 14.58
  C 122.53 15.42 121.75 20.12 120.26 18.99"
/>
<path stroke="#5eaccc" stroke-opacity="0.953" vector-effect="non-scaling-stroke" d="
  M 120.26 18.99
  Q 119.79 18.33 120.22 18.53"
/>
<path stroke="#0d4282" vector-effect="non-scaling-stroke" d="
  M 86.99 11.17
  Q 81.79 10.75 77.05 11.75"
/>
<path stroke="#7d8358" vector-effect="non-scaling-stroke" d="
  M 77.05 11.75
  Q 73.11 11.50 70.21 13.70"
/>
<path stroke="#802d4c" vector-effect="non-scaling-stroke" d="
  M 70.21 13.70
  Q 66.89 11.31 62.23 12.10"
/>
<path stroke="#0d4282" vector-effect="non-scaling-stroke" d="
  M 62.23 12.10
  L 54.66 10.99
  Q 54.27 10.94 54.13 11.30
  Q 53.80 12.12 53.03 11.76"
/>
<path stroke="#fc570c" vector-effect="non-scaling-stroke" d="
  M 70.41 26.13
  Q 70.38 25.19 68.77 24.55
  A 0.18 0.18 0.0 0 1 68.83 24.20
  Q 72.88 23.92 71.55 22.51"
/>
<path stroke="#e5ba75" vector-effect="non-scaling-stroke" d="
  M 71.55 22.51
  Q 71.71 21.51 72.30 20.68
  Q 72.65 20.19 72.80 20.78
  L 73.08 21.84
  Q 73.18 22.24 73.59 22.23
  L 76.17 22.19"
/>
<path stroke="#d79f39" vector-effect="non-scaling-stroke" d="
  M 76.17 22.19
  L 80.71 22.39"
/>
<path stroke="#e5ba75" vector-effect="non-scaling-stroke" d="
  M 80.71 22.39
  Q 81.23 22.63 81.68 22.42
  Q 82.03 22.25 82.10 21.86
  L 82.52 19.25
  A 0.69 0.69 0.0 0 0 81.67 18.47
  Q 78.03 19.39 74.53 18.04
  Q 74.01 17.84 73.55 18.13
  Q 70.80 19.84 69.95 18.57"
/>
<path stroke="#fc570c" vector-effect="non-scaling-stroke" d="
  M 69.95 18.57
  Q 71.86 18.65 72.25 17.76
  A 0.74 0.74 0.0 0 0 71.47 16.74
  L 69.05 17.06
  A 0.70 0.70 0.0 0 1 68.64 15.75
  Q 69.31 15.41 69.93 15.77
  A 0.64 0.64 0.0 0 0 70.87 15.38
  Q 71.06 14.71 70.21 13.70"
/>
<path stroke="#e9646a" vector-effect="non-scaling-stroke" d="
  M 69.95 18.57
  L 62.93 18.85"
/>
<path stroke="#fc570c" vector-effect="non-scaling-stroke" d="
  M 62.93 18.85
  Q 62.72 18.71 62.63 18.73"
/>
<path stroke="#e9646a" vector-effect="non-scaling-stroke" d="
  M 62.63 18.73
  Q 60.79 18.05 58.93 18.33
  Q 58.38 18.41 58.31 18.97
  L 58.02 21.34
  A 0.52 0.52 0.0 0 0 58.51 21.92
  L 71.55 22.51"
/>
<path stroke="#8c1536" vector-effect="non-scaling-stroke" d="
  M 62.23 12.10
  C 51.26 17.44 58.03 32.33 70.41 26.13"
/>
<path stroke="#896c42" vector-effect="non-scaling-stroke" d="
  M 70.41 26.13
  C 82.55 32.79 89.22 16.08 77.05 11.75"
/>
<path stroke="#c4ac97" vector-effect="non-scaling-stroke" d="
  M 80.71 22.39
  Q 79.53 22.51 80.45 20.50
  A 0.37 0.09 -40.2 0 0 79.99 20.73
  Q 78.74 22.09 76.17 22.19"
/>
<path stroke="#e5ba75" vector-effect="non-scaling-stroke" d="
  M 62.63 18.73
  Q 62.02 19.86 62.03 20.55
  A 0.31 0.31 0.0 0 0 62.63 20.67
  Q 62.94 19.97 62.93 18.85"
/>
<path stroke="#077bb8" vector-effect="non-scaling-stroke" d="
  M 174.77 9.92
  L 165.57 10.24"
/>
<path stroke="#0a8ac6" vector-effect="non-scaling-stroke" d="
  M 165.57 10.24
  L 142.77 10.10
  Q 142.28 10.09 142.12 10.56
  Q 141.39 12.74 142.16 14.73"
/>
<path stroke="#76c8e9" vector-effect="non-scaling-stroke" d="
  M 142.16 14.73
  Q 141.16 15.08 141.16 15.52"
/>
<path stroke="#73b6d6" vector-effect="non-scaling-stroke" d="
  M 165.46 14.65
  L 142.16 14.73"
/>
<path stroke="#5f98c0" vector-effect="non-scaling-stroke" d="
  M 174.72 20.67
  L 172.52 21.62"
/>
<path stroke="#1b71ac" vector-effect="non-scaling-stroke" d="
  M 172.52 21.62
  Q 172.38 20.81 172.63 20.13"
/>
<path stroke="#70a6c9" vector-effect="non-scaling-stroke" d="
  M 172.63 20.13
  Q 173.66 17.68 172.83 15.25
  Q 172.65 14.73 172.09 14.72
  L 165.46 14.65"
/>
<path stroke="#0469a6" vector-effect="non-scaling-stroke" d="
  M 165.46 14.65
  Q 162.10 13.44 165.57 10.24"
/>
<path stroke="#8abedc" vector-effect="non-scaling-stroke" d="
  M 172.63 20.13
  L 148.75 20.14"
/>
<path stroke="#71abce" vector-effect="non-scaling-stroke" d="
  M 148.75 20.14
  Q 145.67 20.49 142.42 19.81"
/>
<path stroke="#8abedc" vector-effect="non-scaling-stroke" d="
  M 142.42 19.81
  Q 141.65 19.52 143.27 18.99"
/>
<path stroke="#76c8e9" vector-effect="non-scaling-stroke" d="
  M 143.27 18.99
  Q 143.71 18.69 144.04 18.75"
/>
<path stroke="#8abedc" vector-effect="non-scaling-stroke" d="
  M 144.04 18.75
  Q 145.43 19.67 147.72 18.63"
/>
<path stroke="#76c8e9" vector-effect="non-scaling-stroke" d="
  M 147.72 18.63
  Q 148.37 19.26 149.30 18.83
  A 1.52 1.48 -51.9 0 1 150.19 18.71
  L 153.43 19.27
  A 0.73 0.73 0.0 0 0 154.28 18.49
  L 154.10 16.47
  Q 154.05 15.89 153.47 15.89
  L 150.28 15.89
  Q 149.89 15.89 149.63 16.18
  L 148.22 17.67"
/>
<path stroke="#8abedc" vector-effect="non-scaling-stroke" d="
  M 148.22 17.67
  Q 148.04 16.56 147.50 15.93
  A 0.67 0.67 0.0 0 0 146.66 15.78
  Q 145.73 16.31 146.02 17.45
  A 0.24 0.24 0.0 0 1 145.79 17.75
  Q 145.61 17.75 145.43 17.75
  A 0.38 0.38 0.0 0 1 145.04 17.41
  Q 144.88 15.79 143.52 15.73
  Q 142.97 15.70 142.82 16.23
  Q 142.52 17.25 141.92 17.27"
/>
<path stroke="#79b0d3" vector-effect="non-scaling-stroke" d="
  M 172.52 21.62
  L 163.27 21.86"
/>
<path stroke="#73a2bf" stroke-opacity="0.953" vector-effect="non-scaling-stroke" d="
  M 163.27 21.86
  Q 161.78 21.49 160.38 21.99"
/>
<path stroke="#8abedc" vector-effect="non-scaling-stroke" d="
  M 160.38 21.99
  Q 159.23 22.14 158.31 21.82"
/>
<path stroke="#79b0d3" vector-effect="non-scaling-stroke" d="
  M 158.31 21.82
  L 148.44 21.47"
/>
<path stroke="#65bae0" vector-effect="non-scaling-stroke" d="
  M 174.76 24.53
  Q 173.05 24.57 173.14 22.83
  Q 173.17 22.24 172.64 22.51
  L 171.36 23.18
  Q 170.80 23.47 171.33 23.81
  Q 173.36 25.12 171.82 27.42"
/>
<path stroke="#65bae0" vector-effect="non-scaling-stroke" d="
  M 169.76 27.28
  C 169.66 26.64 169.92 26.15 170.63 26.18
  A 0.99 0.94 -38.8 0 0 170.88 24.27
  Q 169.75 24.12 169.78 22.72
  Q 169.79 22.24 169.34 22.42
  L 167.56 23.14
  Q 166.84 23.42 167.46 23.87
  Q 170.08 25.79 167.02 27.53"
/>
<path stroke="#cee5f0" vector-effect="non-scaling-stroke" d="
  M 158.31 21.82
  L 156.77 23.48"
/>
<path stroke="#79b0d3" vector-effect="non-scaling-stroke" d="
  M 156.77 23.48
  Q 156.10 21.65 154.50 23.12
  Q 154.13 23.46 153.67 23.27
  L 152.26 22.70
  A 0.41 0.40 87.2 0 0 151.75 23.27
  Q 151.99 23.74 152.52 23.90
  A 0.48 0.48 0.0 0 1 152.71 24.70
  Q 151.87 25.48 150.71 25.57
  Q 150.36 25.60 150.32 25.24
  L 150.03 22.48
  Q 149.94 21.56 149.52 22.39
  Q 148.75 23.92 148.85 25.65
  A 0.69 0.68 6.9 0 0 149.34 26.26
  Q 151.39 26.90 153.15 25.76
  A 0.93 0.93 0.0 0 1 154.14 25.74
  C 156.76 27.26 158.19 22.97 159.69 25.42
  Q 159.97 25.88 160.46 25.65
  L 160.87 25.45
  A 1.37 1.36 40.6 0 1 161.84 25.38
  L 166.16 26.76
  Q 166.72 26.94 166.67 26.34
  L 166.31 22.67
  Q 166.26 22.13 165.77 22.36
  Q 163.86 23.29 162.57 22.89"
/>
<path stroke="#bbcbd4" stroke-opacity="0.953" vector-effect="non-scaling-stroke" d="
  M 162.57 22.89
  Q 162.51 22.66 162.49 22.48
  Q 162.46 22.11 162.82 22.03
  Q 163.06 21.99 163.27 21.86"
/>
<path stroke="#2093cc" vector-effect="non-scaling-stroke" d="
  M 148.22 17.67
  Q 147.70 18.00 147.72 18.63"
/>
<path stroke="#2093cc" vector-effect="non-scaling-stroke" d="
  M 144.04 18.75
  Q 144.22 17.74 143.79 17.44
  Q 143.26 17.07 143.26 17.71
  L 143.27 18.99"
/>
<path stroke="#1c76b1" vector-effect="non-scaling-stroke" d="
  M 142.42 19.81
  L 141.29 26.05"
/>
<path stroke="#1c76b1" vector-effect="non-scaling-stroke" d="
  M 148.75 20.14
  L 148.44 21.47"
/>
<path stroke="#609dc5" vector-effect="non-scaling-stroke" d="
  M 148.44 21.47
  Q 147.07 23.84 147.95 26.94
  A 0.72 0.72 0.0 0 0 148.66 27.47
  L 156.52 27.34
  Q 156.94 27.33 157.23 27.03
  L 158.05 26.22
  A 0.49 0.48 -31.5 0 1 158.86 26.41
  C 159.40 28.17 160.55 27.25 161.49 27.29
  Q 164.24 27.39 167.02 27.53"
/>
<path stroke="#0880bd" vector-effect="non-scaling-stroke" d="
  M 167.02 27.53
  L 169.76 27.28"
/>
<path stroke="#609dc5" vector-effect="non-scaling-stroke" d="
  M 169.76 27.28
  Q 170.78 27.10 171.82 27.42"
/>
<path stroke="#0880bd" vector-effect="non-scaling-stroke" d="
  M 171.82 27.42
  Q 173.42 27.34 174.67 27.99"
/>
<path stroke="#73a2bf" stroke-opacity="0.953" vector-effect="non-scaling-stroke" d="
  M 162.57 22.89
  Q 162.42 22.38 161.76 23.14"
/>
<path stroke="#ccd9dd" stroke-opacity="0.953" vector-effect="non-scaling-stroke" d="
  M 161.76 23.14
  Q 161.69 22.27 160.38 21.99"
/>
<path stroke="#8abedc" vector-effect="non-scaling-stroke" d="
  M 156.77 23.48
  L 161.76 23.14"
/>
<path stroke="#084c8b" vector-effect="non-scaling-stroke" d="
  M 263.97 11.57
  Q 257.20 10.31 255.00 11.01
  Q 251.82 12.03 248.55 11.21
  Q 243.57 9.97 242.55 11.99"
/>
<path stroke="#077bb8" vector-effect="non-scaling-stroke" d="
  M 242.55 11.99
  L 237.56 12.49"
/>
<path stroke="#0d4282" vector-effect="non-scaling-stroke" d="
  M 237.56 12.49
  Q 238.11 12.12 238.35 11.42
  Q 238.56 10.83 237.93 10.82
  L 229.02 10.70"
/>
<path stroke="#1363a2" vector-effect="non-scaling-stroke" d="
  M 237.56 12.49
  C 226.43 18.05 235.02 32.91 246.51 26.05"
/>
<path stroke="#7a154d" vector-effect="non-scaling-stroke" d="
  M 246.51 26.05
  C 252.05 30.79 259.93 26.49 259.96 19.28"
/>
<path stroke="#143575" vector-effect="non-scaling-stroke" d="
  M 259.96 19.28
  Q 259.03 20.75 262.89 19.89
  Q 263.35 19.79 263.47 19.33
  Q 263.65 18.71 263.98 18.72"
/>
<path stroke="#752055" vector-effect="non-scaling-stroke" d="
  M 259.96 19.28
  Q 256.97 8.33 245.92 13.74"
/>
<path stroke="#0d6eab" vector-effect="non-scaling-stroke" d="
  M 245.92 13.74
  L 242.55 11.99"
/>
<path stroke="#4d6fa3" vector-effect="non-scaling-stroke" d="
  M 247.58 15.35
  Q 247.12 16.63 245.46 15.71
  Q 244.88 15.39 244.54 15.96
  L 244.32 16.33
  Q 243.97 16.91 244.64 16.92
  L 248.49 16.97"
/>
<path stroke="#4d6fa3" vector-effect="non-scaling-stroke" d="
  M 248.71 17.67
  Q 244.81 17.68 242.96 18.80"
/>
<path stroke="#6fb2d6" vector-effect="non-scaling-stroke" d="
  M 242.96 18.80
  Q 241.30 18.76 239.67 17.92
  Q 239.13 17.65 238.76 18.12
  L 237.71 19.47
  Q 237.25 20.07 237.28 19.31
  Q 237.32 18.42 236.62 17.82
  A 0.59 0.59 0.0 0 0 235.66 18.13
  L 234.97 21.12
  Q 234.84 21.66 235.40 21.69
  L 242.20 22.04"
/>
<path stroke="#077bb8" vector-effect="non-scaling-stroke" d="
  M 242.20 22.04
  Q 244.53 22.50 244.78 24.76"
/>
<path stroke="#4d6fa3" vector-effect="non-scaling-stroke" d="
  M 244.78 24.76
  Q 246.52 24.89 246.87 25.73"
/>
<path stroke="#744e83" vector-effect="non-scaling-stroke" d="
  M 246.51 26.05
  Q 246.69 25.89 246.87 25.73"
/>
<path stroke="#b5214e" vector-effect="non-scaling-stroke" d="
  M 246.87 25.73
  L 247.22 24.30"
/>
<path stroke="#6e2d63" vector-effect="non-scaling-stroke" d="
  M 247.22 24.30
  L 248.07 23.78"
/>
<path stroke="#b5214e" vector-effect="non-scaling-stroke" d="
  M 248.07 23.78
  L 249.71 22.11"
/>
<path stroke="#d76480" vector-effect="non-scaling-stroke" d="
  M 249.71 22.11
  Q 252.20 22.82 253.22 21.23
  Q 253.48 20.84 253.72 21.24
  C 254.94 23.28 257.29 22.52 257.61 20.44
  Q 257.70 19.89 257.34 19.46
  Q 256.21 18.13 254.53 18.79
  A 1.64 1.62 42.0 0 1 253.49 18.84
  Q 250.74 18.10 248.02 18.75"
/>
<path stroke="#b5214e" vector-effect="non-scaling-stroke" d="
  M 248.02 18.75
  Q 248.90 17.87 248.71 17.67"
/>
<path stroke="#744e83" vector-effect="non-scaling-stroke" d="
  M 248.71 17.67
  Q 248.60 17.32 248.49 16.97"
/>
<path stroke="#b5214e" vector-effect="non-scaling-stroke" d="
  M 248.49 16.97
  Q 248.30 16.03 247.58 15.35"
/>
<path stroke="#744e83" vector-effect="non-scaling-stroke" d="
  M 247.58 15.35
  L 245.92 13.74"
/>
<path stroke="#484d83" vector-effect="non-scaling-stroke" d="
  M 247.72 22.46
  Q 247.65 23.30 248.07 23.78"
/>
<path stroke="#484d83" vector-effect="non-scaling-stroke" d="
  M 247.22 24.30
  Q 246.20 23.88 244.78 24.76"
/>
<path stroke="#b084a1" vector-effect="non-scaling-stroke" d="
  M 249.71 22.11
  Q 248.78 21.78 247.72 22.46"
/>
<path stroke="#6a90b6" vector-effect="non-scaling-stroke" d="
  M 247.72 22.46
  Q 245.01 21.60 242.20 22.04"
/>
<path stroke="#b084a1" vector-effect="non-scaling-stroke" d="
  M 248.02 18.75
  L 242.96 18.80"
/>
<path stroke="#d7d9da" stroke-opacity="0.953" vector-effect="non-scaling-stroke" d="
  M 39.02 32.83
  C 43.28 27.30 42.80 20.06 42.36 13.53
  A 1.67 1.66 -65.2 0 0 42.03 12.63
  C 38.90 8.26 36.70 11.64 33.26 11.44"
/>
<path stroke="#dcdcdc" stroke-opacity="0.882" vector-effect="non-scaling-stroke" d="
  M 18.83 32.39
  L 17.32 30.68
  Q 16.97 30.29 16.48 30.13
  Q 15.21 29.71 14.68 28.49
  Q 14.47 28.01 13.95 28.01
  L 12.32 27.99"
/>
<path stroke="#7aa6c6" vector-effect="non-scaling-stroke" d="
  M 15.60 18.85
  L 16.79 22.49
  A 1.59 1.59 0.0 0 0 19.85 22.37
  Q 20.51 19.63 22.31 17.80"
/>
<path stroke="#7aa6c6" vector-effect="non-scaling-stroke" d="
  M 22.82 18.26
  L 22.18 22.88
  Q 22.09 23.48 22.70 23.48
  L 23.54 23.48
  Q 24.03 23.48 24.12 22.99
  L 25.06 17.89"
/>
<path stroke="#7aa6c6" vector-effect="non-scaling-stroke" d="
  M 25.77 17.97
  Q 26.60 19.78 28.60 20.75
  A 0.50 0.50 0.0 0 1 28.69 21.59
  Q 27.59 22.47 26.24 21.53
  A 0.45 0.45 0.0 0 0 25.54 21.87
  L 25.49 22.43
  Q 25.45 23.05 26.04 23.25
  Q 28.05 23.92 30.05 22.92
  A 1.94 1.93 45.1 0 0 30.05 19.46
  L 28.83 18.84
  A 0.57 0.57 0.0 0 1 28.77 17.86
  Q 29.53 17.36 30.44 17.78
  A 0.74 0.74 0.0 0 0 31.41 17.44
  Q 31.65 16.97 31.52 16.26"
/>
<path stroke="#d7d9da" stroke-opacity="0.953" vector-effect="non-scaling-stroke" d="
  M 32.52 14.23
  Q 33.61 14.36 33.18 11.74"
/>
<path stroke="#7d8358" vector-effect="non-scaling-stroke" d="
  M 18.64 18.96
  Q 19.35 19.13 18.79 19.87
  Q 18.45 20.32 18.08 19.90
  L 15.61 17.17"
/>
<path stroke="#70a6c9" vector-effect="non-scaling-stroke" d="
  M 203.86 14.41
  Q 204.94 14.96 204.08 13.53
  A 1.04 1.04 0.0 0 0 202.59 13.23
  Q 200.70 14.57 202.45 16.23
  Q 202.90 16.65 202.31 16.85
  L 201.39 17.16
  Q 200.79 17.37 201.16 17.88
  C 201.37 18.16 207.09 17.74 208.24 17.95
  Q 208.96 18.09 208.85 17.36
  L 208.37 14.12
  A 0.99 0.99 0.0 0 0 206.53 13.78
  L 204.94 16.59
  Q 204.60 17.20 204.27 16.59
  L 203.35 14.94
  A 0.39 0.38 -1.4 0 1 203.86 14.41"
/>
<path stroke="#7aa6c6" vector-effect="non-scaling-stroke" d="
  M 196.26 14.85
  Q 196.29 13.80 195.32 13.48
  A 0.42 0.41 3.8 0 0 194.78 13.95
  L 195.54 17.92
  A 0.57 0.57 0.0 0 0 196.59 18.11
  L 198.98 14.24
  A 0.51 0.51 0.0 0 0 198.15 13.65
  L 196.97 15.11
  Q 196.22 16.03 196.26 14.85"
/>
<path stroke="#7aa6c6" vector-effect="non-scaling-stroke" d="
  M 201.13 13.80
  L 200.05 13.44
  A 0.23 0.23 0.0 0 0 199.76 13.58
  L 199.71 13.74
  A 4.22 0.76 -71.5 0 0 199.09 17.99
  L 199.16 18.01
  A 4.22 0.76 -71.5 0 0 201.22 14.25
  L 201.28 14.09
  A 0.23 0.23 0.0 0 0 201.13 13.80"
/>
<path stroke="#5c757a" vector-effect="non-scaling-stroke" d="
  M 208.76 20.01
  C 207.52 17.51 196.45 20.66 196.78 21.64
  Q 196.84 21.82 197.02 21.76
  Q 202.48 19.87 208.20 20.77
  A 0.53 0.53 0.0 0 0 208.76 20.01"
/>
<path stroke="#1b71ac" vector-effect="non-scaling-stroke" d="
  M 191.83 27.72
  Q 192.42 27.80 193.18 27.52"
/>
<path stroke="#5f98c0" vector-effect="non-scaling-stroke" d="
  M 193.18 27.52
  Q 195.15 27.03 196.89 27.93
  Q 197.64 28.33 197.55 27.48
  Q 197.43 26.43 198.04 25.57
  A 0.64 0.64 0.0 0 0 197.82 24.64
  Q 196.39 23.88 195.25 25.20
  Q 194.75 25.78 194.75 25.01
  L 194.75 23.69
  Q 194.75 23.05 194.11 23.00
  Q 193.41 22.94 192.76 23.32"
/>
<path stroke="#1b71ac" vector-effect="non-scaling-stroke" d="
  M 192.76 23.32
  Q 192.38 23.16 191.98 23.32"
/>
<path stroke="#7aa6c6" vector-effect="non-scaling-stroke" d="
  M 191.98 23.32
  Q 191.04 22.81 190.00 23.40
  A 0.99 0.98 75.6 0 0 189.50 24.26
  L 189.50 26.73
  Q 189.50 27.32 190.04 27.55
  Q 190.82 27.89 191.83 27.72"
/>
<path stroke="#94bed9" vector-effect="non-scaling-stroke" d="
  M 191.98 23.32
  Q 190.88 25.02 191.83 27.72"
/>
<path stroke="#79b0d3" vector-effect="non-scaling-stroke" d="
  M 193.18 27.52
  L 192.76 23.32"
/>
<path stroke="#70a6c9" vector-effect="non-scaling-stroke" d="
  M 202.81 23.62
  A 0.64 0.64 0.0 0 0 202.05 24.37
  L 202.59 27.20
  A 0.68 0.68 0.0 0 0 203.26 27.75
  L 203.70 27.75
  Q 204.32 27.75 204.06 27.19
  Q 203.43 25.87 203.95 24.45
  A 0.51 0.51 0.0 0 0 203.58 23.78
  L 202.81 23.62"
/>
<path stroke="#70a6c9" vector-effect="non-scaling-stroke" d="
  M 200.82 24.99
  Q 201.10 24.94 200.94 24.47
  Q 200.76 23.92 200.27 24.23
  L 199.06 25.01
  A 1.49 1.49 0.0 0 0 199.86 27.75
  L 200.76 27.75
  Q 201.51 27.75 200.93 27.27
  Q 199.84 26.37 200.52 25.21
  Q 200.62 25.03 200.82 24.99"
/>
<path stroke="#5f98c0" vector-effect="non-scaling-stroke" d="
  M 206.99 24.75
  L 207.83 27.25
  Q 207.98 27.70 208.45 27.69
  L 214.59 27.49
  A 0.50 0.49 -7.2 0 0 215.06 26.89
  L 214.59 24.84
  Q 214.47 24.31 213.93 24.32
  L 206.74 24.46"
/>
<path stroke="#7aa6c6" vector-effect="non-scaling-stroke" d="
  M 206.74 24.46
  C 204.88 23.32 204.98 26.51 205.04 27.30
  Q 205.05 27.50 205.25 27.50
  Q 205.40 27.50 205.56 27.50
  Q 205.92 27.49 205.96 27.12
  Q 206.08 26.05 206.99 24.75"
/>
<path stroke="#d8e5ed" vector-effect="non-scaling-stroke" d="
  M 206.74 24.46
  Q 206.73 25.39 206.99 24.75"
/>
<path stroke="#80c8e6" vector-effect="non-scaling-stroke" d="
  M 117.50 26.75
  L 117.89 27.69
  Q 118.11 28.23 118.69 28.17
  L 121.37 27.91
  Q 121.92 27.86 122.02 27.31
  L 122.56 24.35
  A 0.39 0.38 70.5 0 0 121.89 24.03
  C 118.48 27.98 116.15 20.59 114.21 26.27
  A 1.07 1.07 0.0 0 0 115.96 27.40
  L 116.82 26.60
  Q 117.27 26.17 117.50 26.75"
/>
<path stroke="#7aa6c6" vector-effect="non-scaling-stroke" d="
  M 35.14 22.39
  L 37.26 23.53
  A 0.53 0.53 0.0 0 0 38.02 22.95
  L 36.76 17.09
  Q 36.42 15.53 34.92 16.06
  C 33.41 16.58 31.96 21.19 31.21 22.72
  A 0.74 0.73 81.5 0 0 32.37 23.58
  Q 33.24 22.77 34.31 22.34
  Q 34.73 22.17 35.14 22.39"
/>
<path stroke="#70a6c9" vector-effect="non-scaling-stroke" d="
  M 169.99 18.11
  Q 170.43 19.10 171.44 19.29
  Q 172.28 19.45 172.01 18.64
  Q 171.68 17.62 172.24 16.77
  A 0.55 0.54 -83.3 0 0 171.60 15.95
  Q 171.09 16.14 170.68 17.47"
/>
<path stroke="#8abedc" vector-effect="non-scaling-stroke" d="
  M 170.68 17.47
  Q 169.86 16.90 170.05 17.41"
/>
<path stroke="#73b6d6" vector-effect="non-scaling-stroke" d="
  M 170.05 17.41
  Q 170.07 15.97 169.19 15.68
  Q 168.65 15.49 168.37 15.99
  Q 168.05 16.55 168.01 17.61"
/>
<path stroke="#8abedc" vector-effect="non-scaling-stroke" d="
  M 168.01 17.61
  Q 166.43 15.55 165.33 15.83
  Q 163.96 16.16 164.18 17.24
  A 0.87 0.86 3.1 0 1 163.07 18.23
  L 162.68 18.10
  A 0.46 0.46 0.0 0 1 162.51 17.32
  L 163.76 16.17
  Q 163.91 16.03 163.77 15.89
  L 163.56 15.69
  Q 163.28 15.40 162.92 15.60
  Q 161.03 16.67 159.00 15.96
  A 1.04 1.03 32.1 0 0 157.92 16.20
  Q 157.30 16.81 157.01 15.91
  A 0.56 0.56 0.0 0 0 155.99 15.79
  Q 155.35 16.86 155.33 18.18
  Q 155.32 18.75 155.89 18.71
  C 159.09 18.50 162.70 19.56 165.44 19.27
  Q 168.07 18.98 169.99 18.11"
/>
<path stroke="#1e81b9" vector-effect="non-scaling-stroke" d="
  M 168.01 17.61
  Q 169.01 17.07 170.05 17.41"
/>
<path stroke="#1b71ac" vector-effect="non-scaling-stroke" d="
  M 170.68 17.47
  Q 170.56 17.04 169.99 18.11"
/>
<path stroke="#79b0d3" vector-effect="non-scaling-stroke" d="
  M 159.56 18.11
  Q 160.60 18.31 160.81 17.11
  Q 160.95 16.39 160.29 16.72
  Q 159.72 17.02 159.34 17.58
  A 0.34 0.34 0.0 0 0 159.56 18.11"
/>
<path stroke="#5f98c0" vector-effect="non-scaling-stroke" d="
  M 34.40 20.89
  A 0.69 0.69 0.0 0 0 35.55 20.72
  Q 36.05 19.61 35.21 18.84
  A 0.50 0.50 0.0 0 0 34.49 18.90
  Q 33.60 20.01 34.40 20.89"
/>
<path stroke="#e5ba75" vector-effect="non-scaling-stroke" d="
  M 74.68 19.25
  Q 73.85 19.72 73.99 20.64
  Q 74.07 21.18 74.56 20.95
  Q 75.80 20.38 75.31 19.44
  A 0.46 0.46 0.0 0 0 74.68 19.25"
/>
<path stroke="#e5ba75" vector-effect="non-scaling-stroke" d="
  M 251.09 21.04
  Q 251.27 21.28 251.38 21.26
  A 0.68 0.52 -43.7 0 0 251.56 20.07
  L 250.55 20.07
  A 0.26 0.26 0.0 0 0 250.36 20.50
  Q 250.52 20.67 250.72 20.75
  Q 250.94 20.84 251.09 21.04"
/>
<path stroke="#79b0d3" vector-effect="non-scaling-stroke" d="
  M 154.32 24.88
  Q 155.27 25.64 155.84 24.58
  A 0.43 0.42 5.6 0 0 155.34 23.98
  L 154.45 24.24
  Q 153.77 24.44 154.32 24.88"
/>
</g>
<path fill="#86888b" fill-opacity="0.580" d="
  M 106.49 11.18
  Q 105.03 9.44 100.76 9.91
  Q 100.28 9.96 99.94 10.30
  L 97.33 12.96
  L 97.32 10.01
  A 0.76 0.76 0.0 0 1 97.95 9.26
  Q 99.15 9.06 99.95 8.19
  A 3.20 2.91 -43.0 0 1 104.61 8.13
  Q 105.35 9.07 106.50 9.40
  Q 106.95 9.52 106.83 9.98
  L 106.49 11.18
  Z"
/>
<path fill="#b8bdbf" fill-opacity="0.906" d="
  M 128.14 30.74
  C 130.14 25.51 129.58 19.77 129.22 13.95
  C 129.14 12.56 128.45 11.76 127.83 10.57
  Q 127.62 10.15 127.16 10.06
  C 123.72 9.36 122.66 11.35 122.56 14.58
  C 122.53 15.42 121.75 20.12 120.26 18.99
  Q 119.79 18.33 120.22 18.53
  Q 121.20 15.44 120.74 11.49
  Q 121.22 10.60 120.97 9.33
  C 123.69 8.99 127.96 7.85 130.34 9.39
  A 0.94 0.92 18.0 0 1 130.76 10.20
  L 130.16 27.77
  Q 130.14 28.35 129.75 28.77
  Q 129.27 29.28 129.27 30.01
  Q 129.27 30.38 128.91 30.50
  L 128.14 30.74
  Z"
/>
<path fill="#015998" d="
  M 86.99 11.17
  Q 81.79 10.75 77.05 11.75
  Q 73.11 11.50 70.21 13.70
  Q 66.89 11.31 62.23 12.10
  L 54.66 10.99
  Q 54.27 10.94 54.13 11.30
  Q 53.80 12.12 53.03 11.76
  L 53.06 9.59
  Q 53.07 9.00 53.65 9.00
  Q 69.71 9.00 85.76 9.00
  C 87.34 9.00 87.18 9.95 86.99 11.17
  Z"
/>
<path fill="#0c9cd8" d="
  M 174.77 9.92
  L 165.57 10.24
  L 142.77 10.10
  Q 142.28 10.09 142.12 10.56
  Q 141.39 12.74 142.16 14.73
  Q 141.16 15.08 141.16 15.52
  Q 140.64 12.58 141.19 9.57
  Q 141.29 9.03 141.84 9.02
  Q 157.73 8.94 173.51 9.02
  C 174.05 9.03 174.76 9.36 174.77 9.92
  Z"
/>
<path fill="#015998" d="
  M 219.00 30.57
  A 0.43 0.43 0.0 0 1 218.57 31.00
  L 185.43 31.00
  A 0.43 0.43 0.0 0 1 185.00 30.57
  L 185.00 9.43
  A 0.43 0.43 0.0 0 1 185.43 9.00
  L 218.57 9.00
  A 0.43 0.43 0.0 0 1 219.00 9.43
  L 219.00 30.57
  Z
  M 203.86 14.41
  Q 204.94 14.96 204.08 13.53
  A 1.04 1.04 0.0 0 0 202.59 13.23
  Q 200.70 14.57 202.45 16.23
  Q 202.90 16.65 202.31 16.85
  L 201.39 17.16
  Q 200.79 17.37 201.16 17.88
  C 201.37 18.16 207.09 17.74 208.24 17.95
  Q 208.96 18.09 208.85 17.36
  L 208.37 14.12
  A 0.99 0.99 0.0 0 0 206.53 13.78
  L 204.94 16.59
  Q 204.60 17.20 204.27 16.59
  L 203.35 14.94
  A 0.39 0.38 -1.4 0 1 203.86 14.41
  Z
  M 196.26 14.85
  Q 196.29 13.80 195.32 13.48
  A 0.42 0.41 3.8 0 0 194.78 13.95
  L 195.54 17.92
  A 0.57 0.57 0.0 0 0 196.59 18.11
  L 198.98 14.24
  A 0.51 0.51 0.0 0 0 198.15 13.65
  L 196.97 15.11
  Q 196.22 16.03 196.26 14.85
  Z
  M 201.13 13.80
  L 200.05 13.44
  A 0.23 0.23 0.0 0 0 199.76 13.58
  L 199.71 13.74
  A 4.22 0.76 -71.5 0 0 199.09 17.99
  L 199.16 18.01
  A 4.22 0.76 -71.5 0 0 201.22 14.25
  L 201.28 14.09
  A 0.23 0.23 0.0 0 0 201.13 13.80
  Z
  M 208.76 20.01
  C 207.52 17.51 196.45 20.66 196.78 21.64
  Q 196.84 21.82 197.02 21.76
  Q 202.48 19.87 208.20 20.77
  A 0.53 0.53 0.0 0 0 208.76 20.01
  Z
  M 191.83 27.72
  Q 192.42 27.80 193.18 27.52
  Q 195.15 27.03 196.89 27.93
  Q 197.64 28.33 197.55 27.48
  Q 197.43 26.43 198.04 25.57
  A 0.64 0.64 0.0 0 0 197.82 24.64
  Q 196.39 23.88 195.25 25.20
  Q 194.75 25.78 194.75 25.01
  L 194.75 23.69
  Q 194.75 23.05 194.11 23.00
  Q 193.41 22.94 192.76 23.32
  Q 192.38 23.16 191.98 23.32
  Q 191.04 22.81 190.00 23.40
  A 0.99 0.98 75.6 0 0 189.50 24.26
  L 189.50 26.73
  Q 189.50 27.32 190.04 27.55
  Q 190.82 27.89 191.83 27.72
  Z
  M 202.81 23.62
  A 0.64 0.64 0.0 0 0 202.05 24.37
  L 202.59 27.20
  A 0.68 0.68 0.0 0 0 203.26 27.75
  L 203.70 27.75
  Q 204.32 27.75 204.06 27.19
  Q 203.43 25.87 203.95 24.45
  A 0.51 0.51 0.0 0 0 203.58 23.78
  L 202.81 23.62
  Z
  M 200.82 24.99
  Q 201.10 24.94 200.94 24.47
  Q 200.76 23.92 200.27 24.23
  L 199.06 25.01
  A 1.49 1.49 0.0 0 0 199.86 27.75
  L 200.76 27.75
  Q 201.51 27.75 200.93 27.27
  Q 199.84 26.37 200.52 25.21
  Q 200.62 25.03 200.82 24.99
  Z
  M 206.99 24.75
  L 207.83 27.25
  Q 207.98 27.70 208.45 27.69
  L 214.59 27.49
  A 0.50 0.49 -7.2 0 0 215.06 26.89
  L 214.59 24.84
  Q 214.47 24.31 213.93 24.32
  L 206.74 24.46
  C 204.88 23.32 204.98 26.51 205.04 27.30
  Q 205.05 27.50 205.25 27.50
  Q 205.40 27.50 205.56 27.50
  Q 205.92 27.49 205.96 27.12
  Q 206.08 26.05 206.99 24.75
  Z"
/>
<path fill="#015998" d="
  M 263.97 11.57
  Q 257.20 10.31 255.00 11.01
  Q 251.82 12.03 248.55 11.21
  Q 243.57 9.97 242.55 11.99
  L 237.56 12.49
  Q 238.11 12.12 238.35 11.42
  Q 238.56 10.83 237.93 10.82
  L 229.02 10.70
  C 228.81 9.66 228.85 9.00 230.09 9.00
  Q 246.78 9.00 263.47 9.00
  Q 263.99 9.00 263.99 9.53
  L 263.97 11.57
  Z"
/>
<path fill="#86888b" fill-opacity="0.580" d="
  M 120.97 9.33
  Q 121.22 10.60 120.74 11.49
  Q 120.86 10.64 119.70 10.03
  Q 119.10 9.72 119.69 9.40
  Q 120.26 9.09 120.97 9.33
  Z"
/>
<path fill="#b8bdbf" fill-opacity="0.906" d="
  M 39.02 32.83
  C 43.28 27.30 42.80 20.06 42.36 13.53
  A 1.67 1.66 -65.2 0 0 42.03 12.63
  C 38.90 8.26 36.70 11.64 33.26 11.44
  C 39.89 6.47 44.04 11.30 43.74 17.98
  Q 43.64 20.33 42.67 28.80
  C 42.40 31.17 41.38 32.57 39.02 32.83
  Z"
/>
<path fill="#bdbdbf" fill-opacity="0.765" d="
  M 106.49 11.18
  Q 106.79 13.90 105.37 15.36
  Q 105.02 15.72 105.10 16.21
  L 106.39 23.69
  Q 106.20 23.73 106.02 23.77
  Q 102.57 23.38 102.64 20.04
  A 1.68 1.68 0.0 0 0 99.47 19.23
  Q 96.92 24.15 98.49 29.56
  Q 98.65 30.09 99.20 30.05
  L 102.76 29.83
  Q 103.20 29.80 103.57 30.03
  Q 104.45 30.58 105.58 30.74
  C 103.54 31.27 99.45 33.92 97.57 31.92
  C 95.86 30.10 97.21 16.19 97.33 12.96
  L 99.94 10.30
  Q 100.28 9.96 100.76 9.91
  Q 105.03 9.44 106.49 11.18
  Z"
/>
<path fill="#f3f3f3" d="
  M 128.14 30.74
  L 123.06 30.70
  Q 119.79 25.84 116.23 30.72
  L 105.58 30.74
  Q 104.45 30.58 103.57 30.03
  Q 103.20 29.80 102.76 29.83
  L 99.20 30.05
  Q 98.65 30.09 98.49 29.56
  Q 96.92 24.15 99.47 19.23
  A 1.68 1.68 0.0 0 1 102.64 20.04
  Q 102.57 23.38 106.02 23.77
  Q 105.12 25.48 105.12 27.42
  A 0.47 0.46 -22.2 0 0 105.91 27.75
  L 107.10 26.57
  A 0.39 0.38 -32.2 0 1 107.74 26.71
  Q 108.32 28.37 110.19 27.95
  Q 110.69 27.84 110.91 27.38
  Q 111.12 26.96 111.40 26.58
  A 0.37 0.37 0.0 0 1 112.06 26.89
  L 111.73 28.42
  A 0.47 0.47 0.0 0 0 112.49 28.88
  Q 113.67 27.86 114.01 26.41
  Q 114.13 25.91 113.63 25.81
  L 110.17 25.14
  Q 109.44 24.70 108.50 24.76
  Q 108.34 24.87 108.10 24.09
  Q 110.13 23.41 110.86 21.60
  Q 111.07 21.62 111.27 21.64
  Q 112.43 23.26 113.80 22.72
  A 0.98 0.98 0.0 0 0 114.43 21.88
  L 114.53 20.57
  Q 114.56 20.15 114.94 19.97
  Q 117.52 18.67 120.26 18.99
  C 121.75 20.12 122.53 15.42 122.56 14.58
  C 122.66 11.35 123.72 9.36 127.16 10.06
  Q 127.62 10.15 127.83 10.57
  C 128.45 11.76 129.14 12.56 129.22 13.95
  C 129.58 19.77 130.14 25.51 128.14 30.74
  Z
  M 117.50 26.75
  L 117.89 27.69
  Q 118.11 28.23 118.69 28.17
  L 121.37 27.91
  Q 121.92 27.86 122.02 27.31
  L 122.56 24.35
  A 0.39 0.38 70.5 0 0 121.89 24.03
  C 118.48 27.98 116.15 20.59 114.21 26.27
  A 1.07 1.07 0.0 0 0 115.96 27.40
  L 116.82 26.60
  Q 117.27 26.17 117.50 26.75
  Z"
/>
<path fill="#015998" d="
  M 174.77 9.92
  L 174.72 20.67
  L 172.52 21.62
  Q 172.38 20.81 172.63 20.13
  Q 173.66 17.68 172.83 15.25
  Q 172.65 14.73 172.09 14.72
  L 165.46 14.65
  Q 162.10 13.44 165.57 10.24
  L 174.77 9.92
  Z"
/>
<path fill="#0778b3" d="
  M 165.57 10.24
  Q 162.10 13.44 165.46 14.65
  L 142.16 14.73
  Q 141.39 12.74 142.12 10.56
  Q 142.28 10.09 142.77 10.10
  L 165.57 10.24
  Z"
/>
<path fill="#f3f3f3" d="
  M 39.02 32.83
  C 35.84 32.27 33.71 31.60 30.35 32.20
  Q 24.50 33.26 18.83 32.39
  L 17.32 30.68
  Q 16.97 30.29 16.48 30.13
  Q 15.21 29.71 14.68 28.49
  Q 14.47 28.01 13.95 28.01
  L 12.32 27.99
  Q 11.60 22.96 12.21 17.78
  Q 12.28 17.19 12.81 17.45
  L 15.60 18.85
  L 16.79 22.49
  A 1.59 1.59 0.0 0 0 19.85 22.37
  Q 20.51 19.63 22.31 17.80
  Q 22.78 18.12 22.82 18.26
  L 22.18 22.88
  Q 22.09 23.48 22.70 23.48
  L 23.54 23.48
  Q 24.03 23.48 24.12 22.99
  L 25.06 17.89
  Q 25.52 18.07 25.77 17.97
  Q 26.60 19.78 28.60 20.75
  A 0.50 0.50 0.0 0 1 28.69 21.59
  Q 27.59 22.47 26.24 21.53
  A 0.45 0.45 0.0 0 0 25.54 21.87
  L 25.49 22.43
  Q 25.45 23.05 26.04 23.25
  Q 28.05 23.92 30.05 22.92
  A 1.94 1.93 45.1 0 0 30.05 19.46
  L 28.83 18.84
  A 0.57 0.57 0.0 0 1 28.77 17.86
  Q 29.53 17.36 30.44 17.78
  A 0.74 0.74 0.0 0 0 31.41 17.44
  Q 31.65 16.97 31.52 16.26
  Q 32.27 15.70 32.52 14.23
  Q 33.61 14.36 33.18 11.74
  Q 33.75 11.26 33.26 11.44
  C 36.70 11.64 38.90 8.26 42.03 12.63
  A 1.67 1.66 -65.2 0 1 42.36 13.53
  C 42.80 20.06 43.28 27.30 39.02 32.83
  Z
  M 35.14 22.39
  L 37.26 23.53
  A 0.53 0.53 0.0 0 0 38.02 22.95
  L 36.76 17.09
  Q 36.42 15.53 34.92 16.06
  C 33.41 16.58 31.96 21.19 31.21 22.72
  A 0.74 0.73 81.5 0 0 32.37 23.58
  Q 33.24 22.77 34.31 22.34
  Q 34.73 22.17 35.14 22.39
  Z"
/>
<path fill="#192a6c" d="
  M 62.23 12.10
  C 51.26 17.44 58.03 32.33 70.41 26.13
  C 82.55 32.79 89.22 16.08 77.05 11.75
  Q 81.79 10.75 86.99 11.17
  L 86.99 30.26
  A 0.67 0.66 -90.0 0 1 86.33 30.93
  L 53.70 30.97
  A 0.70 0.69 -90.0 0 1 53.01 30.27
  L 53.03 11.76
  Q 53.80 12.12 54.13 11.30
  Q 54.27 10.94 54.66 10.99
  L 62.23 12.10
  Z"
/>
<path fill="#192a6c" d="
  M 237.56 12.49
  C 226.43 18.05 235.02 32.91 246.51 26.05
  C 252.05 30.79 259.93 26.49 259.96 19.28
  Q 259.03 20.75 262.89 19.89
  Q 263.35 19.79 263.47 19.33
  Q 263.65 18.71 263.98 18.72
  L 263.99 30.04
  A 0.96 0.95 -90.0 0 1 263.04 31.00
  L 229.52 31.00
  A 0.52 0.51 -90.0 0 1 229.01 30.48
  L 229.02 10.70
  L 237.93 10.82
  Q 238.56 10.83 238.35 11.42
  Q 238.11 12.12 237.56 12.49
  Z"
/>
<path fill="#0e3f7d" d="
  M 263.97 11.57
  L 263.98 18.72
  Q 263.65 18.71 263.47 19.33
  Q 263.35 19.79 262.89 19.89
  Q 259.03 20.75 259.96 19.28
  Q 256.97 8.33 245.92 13.74
  L 242.55 11.99
  Q 243.57 9.97 248.55 11.21
  Q 251.82 12.03 255.00 11.01
  Q 257.20 10.31 263.97 11.57
  Z"
/>
<path fill="#192a6c" d="
  M 118.31 14.22
  Q 116.98 17.78 113.07 17.76
  Q 112.56 17.75 112.40 18.24
  L 111.27 21.64
  Q 111.07 21.62 110.86 21.60
  Q 110.30 21.62 109.53 20.10
  L 110.72 11.82
  A 0.77 0.77 0.0 0 1 111.31 11.17
  C 113.67 10.59 118.53 10.49 118.31 14.22
  Z"
/>
<path fill="#b8bdbf" fill-opacity="0.906" d="
  M 33.18 11.74
  Q 33.61 14.36 32.52 14.23
  Q 32.94 13.51 32.17 12.88
  Q 31.82 12.59 32.20 12.35
  L 33.18 11.74
  Z"
/>
<path fill="#f8ad17" d="
  M 77.05 11.75
  C 89.22 16.08 82.55 32.79 70.41 26.13
  Q 70.38 25.19 68.77 24.55
  A 0.18 0.18 0.0 0 1 68.83 24.20
  Q 72.88 23.92 71.55 22.51
  Q 71.71 21.51 72.30 20.68
  Q 72.65 20.19 72.80 20.78
  L 73.08 21.84
  Q 73.18 22.24 73.59 22.23
  L 76.17 22.19
  L 80.71 22.39
  Q 81.23 22.63 81.68 22.42
  Q 82.03 22.25 82.10 21.86
  L 82.52 19.25
  A 0.69 0.69 0.0 0 0 81.67 18.47
  Q 78.03 19.39 74.53 18.04
  Q 74.01 17.84 73.55 18.13
  Q 70.80 19.84 69.95 18.57
  Q 71.86 18.65 72.25 17.76
  A 0.74 0.74 0.0 0 0 71.47 16.74
  L 69.05 17.06
  A 0.70 0.70 0.0 0 1 68.64 15.75
  Q 69.31 15.41 69.93 15.77
  A 0.64 0.64 0.0 0 0 70.87 15.38
  Q 71.06 14.71 70.21 13.70
  Q 73.11 11.50 77.05 11.75
  Z"
/>
<path fill="#ff0000" d="
  M 70.21 13.70
  Q 71.06 14.71 70.87 15.38
  A 0.64 0.64 0.0 0 1 69.93 15.77
  Q 69.31 15.41 68.64 15.75
  A 0.70 0.70 0.0 0 0 69.05 17.06
  L 71.47 16.74
  A 0.74 0.74 0.0 0 1 72.25 17.76
  Q 71.86 18.65 69.95 18.57
  L 62.93 18.85
  Q 62.72 18.71 62.63 18.73
  Q 60.79 18.05 58.93 18.33
  Q 58.38 18.41 58.31 18.97
  L 58.02 21.34
  A 0.52 0.52 0.0 0 0 58.51 21.92
  L 71.55 22.51
  Q 72.88 23.92 68.83 24.20
  A 0.18 0.18 0.0 0 0 68.77 24.55
  Q 70.38 25.19 70.41 26.13
  C 58.03 32.33 51.26 17.44 62.23 12.10
  Q 66.89 11.31 70.21 13.70
  Z"
/>
<path fill="#db002d" d="
  M 259.96 19.28
  C 259.93 26.49 252.05 30.79 246.51 26.05
  Q 246.69 25.89 246.87 25.73
  L 247.22 24.30
  L 248.07 23.78
  L 249.71 22.11
  Q 252.20 22.82 253.22 21.23
  Q 253.48 20.84 253.72 21.24
  C 254.94 23.28 257.29 22.52 257.61 20.44
  Q 257.70 19.89 257.34 19.46
  Q 256.21 18.13 254.53 18.79
  A 1.64 1.62 42.0 0 1 253.49 18.84
  Q 250.74 18.10 248.02 18.75
  Q 248.90 17.87 248.71 17.67
  Q 248.60 17.32 248.49 16.97
  Q 248.30 16.03 247.58 15.35
  L 245.92 13.74
  Q 256.97 8.33 259.96 19.28
  Z"
/>
<path fill="#0c9cd8" d="
  M 242.55 11.99
  L 245.92 13.74
  L 247.58 15.35
  Q 247.12 16.63 245.46 15.71
  Q 244.88 15.39 244.54 15.96
  L 244.32 16.33
  Q 243.97 16.91 244.64 16.92
  L 248.49 16.97
  Q 248.60 17.32 248.71 17.67
  Q 244.81 17.68 242.96 18.80
  Q 241.30 18.76 239.67 17.92
  Q 239.13 17.65 238.76 18.12
  L 237.71 19.47
  Q 237.25 20.07 237.28 19.31
  Q 237.32 18.42 236.62 17.82
  A 0.59 0.59 0.0 0 0 235.66 18.13
  L 234.97 21.12
  Q 234.84 21.66 235.40 21.69
  L 242.20 22.04
  Q 244.53 22.50 244.78 24.76
  Q 246.52 24.89 246.87 25.73
  Q 246.69 25.89 246.51 26.05
  C 235.02 32.91 226.43 18.05 237.56 12.49
  L 242.55 11.99
  Z"
/>
<path fill="#dff3f9" d="
  M 203.35 14.94
  L 204.27 16.59
  Q 204.60 17.20 204.94 16.59
  L 206.53 13.78
  A 0.99 0.99 0.0 0 1 208.37 14.12
  L 208.85 17.36
  Q 208.96 18.09 208.24 17.95
  C 207.09 17.74 201.37 18.16 201.16 17.88
  Q 200.79 17.37 201.39 17.16
  L 202.31 16.85
  Q 202.90 16.65 202.45 16.23
  Q 200.70 14.57 202.59 13.23
  A 1.04 1.04 0.0 0 1 204.08 13.53
  Q 204.94 14.96 203.86 14.41
  A 0.39 0.38 -1.4 0 0 203.35 14.94
  Z"
/>
<path fill="#f3f3f3" d="
  M 196.97 15.11
  L 198.15 13.65
  A 0.51 0.51 0.0 0 1 198.98 14.24
  L 196.59 18.11
  A 0.57 0.57 0.0 0 1 195.54 17.92
  L 194.78 13.95
  A 0.42 0.41 3.8 0 1 195.32 13.48
  Q 196.29 13.80 196.26 14.85
  Q 196.22 16.03 196.97 15.11
  Z"
/>
<path fill="#f3f3f3" d="
  M 201.13 13.80
  A 0.23 0.23 0.0 0 1 201.28 14.09
  L 201.22 14.25
  A 4.22 0.76 -71.5 0 1 199.16 18.01
  L 199.09 17.99
  A 4.22 0.76 -71.5 0 1 199.71 13.74
  L 199.76 13.58
  A 0.23 0.23 0.0 0 1 200.05 13.44
  L 201.13 13.80
  Z"
/>
<path fill="#0c9cd8" d="
  M 118.31 14.22
  C 119.24 15.85 118.29 18.67 120.22 18.53
  Q 119.79 18.33 120.26 18.99
  Q 117.52 18.67 114.94 19.97
  Q 114.56 20.15 114.53 20.57
  L 114.43 21.88
  A 0.98 0.98 0.0 0 1 113.80 22.72
  Q 112.43 23.26 111.27 21.64
  L 112.40 18.24
  Q 112.56 17.75 113.07 17.76
  Q 116.98 17.78 118.31 14.22
  Z"
/>
<path fill="#dff3f9" d="
  M 165.46 14.65
  L 172.09 14.72
  Q 172.65 14.73 172.83 15.25
  Q 173.66 17.68 172.63 20.13
  L 148.75 20.14
  Q 145.67 20.49 142.42 19.81
  Q 141.65 19.52 143.27 18.99
  Q 143.71 18.69 144.04 18.75
  Q 145.43 19.67 147.72 18.63
  Q 148.37 19.26 149.30 18.83
  A 1.52 1.48 -51.9 0 1 150.19 18.71
  L 153.43 19.27
  A 0.73 0.73 0.0 0 0 154.28 18.49
  L 154.10 16.47
  Q 154.05 15.89 153.47 15.89
  L 150.28 15.89
  Q 149.89 15.89 149.63 16.18
  L 148.22 17.67
  Q 148.04 16.56 147.50 15.93
  A 0.67 0.67 0.0 0 0 146.66 15.78
  Q 145.73 16.31 146.02 17.45
  A 0.24 0.24 0.0 0 1 145.79 17.75
  Q 145.61 17.75 145.43 17.75
  A 0.38 0.38 0.0 0 1 145.04 17.41
  Q 144.88 15.79 143.52 15.73
  Q 142.97 15.70 142.82 16.23
  Q 142.52 17.25 141.92 17.27
  L 141.16 15.52
  Q 141.16 15.08 142.16 14.73
  L 165.46 14.65
  Z
  M 169.99 18.11
  Q 170.43 19.10 171.44 19.29
  Q 172.28 19.45 172.01 18.64
  Q 171.68 17.62 172.24 16.77
  A 0.55 0.54 -83.3 0 0 171.60 15.95
  Q 171.09 16.14 170.68 17.47
  Q 169.86 16.90 170.05 17.41
  Q 170.07 15.97 169.19 15.68
  Q 168.65 15.49 168.37 15.99
  Q 168.05 16.55 168.01 17.61
  Q 166.43 15.55 165.33 15.83
  Q 163.96 16.16 164.18 17.24
  A 0.87 0.86 3.1 0 1 163.07 18.23
  L 162.68 18.10
  A 0.46 0.46 0.0 0 1 162.51 17.32
  L 163.76 16.17
  Q 163.91 16.03 163.77 15.89
  L 163.56 15.69
  Q 163.28 15.40 162.92 15.60
  Q 161.03 16.67 159.00 15.96
  A 1.04 1.03 32.1 0 0 157.92 16.20
  Q 157.30 16.81 157.01 15.91
  A 0.56 0.56 0.0 0 0 155.99 15.79
  Q 155.35 16.86 155.33 18.18
  Q 155.32 18.75 155.89 18.71
  C 159.09 18.50 162.70 19.56 165.44 19.27
  Q 168.07 18.98 169.99 18.11
  Z"
/>
<path fill="#8e416e" d="
  M 247.58 15.35
  Q 248.30 16.03 248.49 16.97
  L 244.64 16.92
  Q 243.97 16.91 244.32 16.33
  L 244.54 15.96
  Q 244.88 15.39 245.46 15.71
  Q 247.12 16.63 247.58 15.35
  Z"
/>
<path fill="#3489bf" d="
  M 168.01 17.61
  Q 169.01 17.07 170.05 17.41
  Q 169.86 16.90 170.68 17.47
  Q 170.56 17.04 169.99 18.11
  Q 168.07 18.98 165.44 19.27
  C 162.70 19.56 159.09 18.50 155.89 18.71
  Q 155.32 18.75 155.33 18.18
  Q 155.35 16.86 155.99 15.79
  A 0.56 0.56 0.0 0 1 157.01 15.91
  Q 157.30 16.81 157.92 16.20
  A 1.04 1.03 32.1 0 1 159.00 15.96
  Q 161.03 16.67 162.92 15.60
  Q 163.28 15.40 163.56 15.69
  L 163.77 15.89
  Q 163.91 16.03 163.76 16.17
  L 162.51 17.32
  A 0.46 0.46 0.0 0 0 162.68 18.10
  L 163.07 18.23
  A 0.87 0.86 3.1 0 0 164.18 17.24
  Q 163.96 16.16 165.33 15.83
  Q 166.43 15.55 168.01 17.61
  Z
  M 159.56 18.11
  Q 160.60 18.31 160.81 17.11
  Q 160.95 16.39 160.29 16.72
  Q 159.72 17.02 159.34 17.58
  A 0.34 0.34 0.0 0 0 159.56 18.11
  Z"
/>
<path fill="#0778b3" d="
  M 170.05 17.41
  Q 169.01 17.07 168.01 17.61
  Q 168.05 16.55 168.37 15.99
  Q 168.65 15.49 169.19 15.68
  Q 170.07 15.97 170.05 17.41
  Z"
/>
<path fill="#3489bf" d="
  M 148.22 17.67
  Q 147.70 18.00 147.72 18.63
  Q 145.43 19.67 144.04 18.75
  Q 144.22 17.74 143.79 17.44
  Q 143.26 17.07 143.26 17.71
  L 143.27 18.99
  Q 141.65 19.52 142.42 19.81
  L 141.29 26.05
  Q 140.56 21.73 141.92 17.27
  Q 142.52 17.25 142.82 16.23
  Q 142.97 15.70 143.52 15.73
  Q 144.88 15.79 145.04 17.41
  A 0.38 0.38 0.0 0 0 145.43 17.75
  Q 145.61 17.75 145.79 17.75
  A 0.24 0.24 0.0 0 0 146.02 17.45
  Q 145.73 16.31 146.66 15.78
  A 0.67 0.67 0.0 0 1 147.50 15.93
  Q 148.04 16.56 148.22 17.67
  Z"
/>
<path fill="#0c9cd8" d="
  M 147.72 18.63
  Q 147.70 18.00 148.22 17.67
  L 149.63 16.18
  Q 149.89 15.89 150.28 15.89
  L 153.47 15.89
  Q 154.05 15.89 154.10 16.47
  L 154.28 18.49
  A 0.73 0.73 0.0 0 1 153.43 19.27
  L 150.19 18.71
  A 1.52 1.48 -51.9 0 0 149.30 18.83
  Q 148.37 19.26 147.72 18.63
  Z"
/>
<path fill="#f8ad17" d="
  M 18.64 18.96
  Q 19.35 19.13 18.79 19.87
  Q 18.45 20.32 18.08 19.90
  L 15.61 17.17
  Q 15.05 17.05 14.64 16.68
  Q 14.25 16.34 14.75 16.20
  Q 17.43 15.45 18.64 18.96
  Z"
/>
<path fill="#015998" d="
  M 22.31 17.80
  Q 20.51 19.63 19.85 22.37
  A 1.59 1.59 0.0 0 1 16.79 22.49
  L 15.60 18.85
  L 15.79 18.60
  A 0.68 0.67 -36.7 0 0 15.89 17.95
  L 15.61 17.17
  L 18.08 19.90
  Q 18.45 20.32 18.79 19.87
  Q 19.35 19.13 18.64 18.96
  L 20.11 16.62
  A 1.15 1.15 0.0 0 1 22.16 16.83
  Q 22.35 17.33 22.31 17.80
  Z"
/>
<path fill="#015998" d="
  M 25.06 17.89
  L 24.12 22.99
  Q 24.03 23.48 23.54 23.48
  L 22.70 23.48
  Q 22.09 23.48 22.18 22.88
  L 22.82 18.26
  Q 23.30 17.80 23.04 17.16
  A 0.52 0.51 -25.4 0 1 23.27 16.53
  L 24.25 15.96
  Q 24.92 15.58 24.96 16.35
  L 25.06 17.89
  Z"
/>
<path fill="#015998" d="
  M 31.52 16.26
  Q 31.65 16.97 31.41 17.44
  A 0.74 0.74 0.0 0 1 30.44 17.78
  Q 29.53 17.36 28.77 17.86
  A 0.57 0.57 0.0 0 0 28.83 18.84
  L 30.05 19.46
  A 1.94 1.93 45.1 0 1 30.05 22.92
  Q 28.05 23.92 26.04 23.25
  Q 25.45 23.05 25.49 22.43
  L 25.54 21.87
  A 0.45 0.45 0.0 0 1 26.24 21.53
  Q 27.59 22.47 28.69 21.59
  A 0.50 0.50 0.0 0 0 28.60 20.75
  Q 26.60 19.78 25.77 17.97
  Q 27.90 15.10 31.52 16.26
  Z"
/>
<path fill="#015998" d="
  M 34.31 22.34
  Q 33.24 22.77 32.37 23.58
  A 0.74 0.73 81.5 0 1 31.21 22.72
  C 31.96 21.19 33.41 16.58 34.92 16.06
  Q 36.42 15.53 36.76 17.09
  L 38.02 22.95
  A 0.53 0.53 0.0 0 1 37.26 23.53
  L 35.14 22.39
  Q 34.73 22.17 34.31 22.34
  Z
  M 34.40 20.89
  A 0.69 0.69 0.0 0 0 35.55 20.72
  Q 36.05 19.61 35.21 18.84
  A 0.50 0.50 0.0 0 0 34.49 18.90
  Q 33.60 20.01 34.40 20.89
  Z"
/>
<path fill="#015998" d="
  M 169.99 18.11
  Q 170.56 17.04 170.68 17.47
  Q 171.09 16.14 171.60 15.95
  A 0.55 0.54 -83.3 0 1 172.24 16.77
  Q 171.68 17.62 172.01 18.64
  Q 172.28 19.45 171.44 19.29
  Q 170.43 19.10 169.99 18.11
  Z"
/>
<path fill="#bdd7e7" d="
  M 159.56 18.11
  A 0.34 0.34 0.0 0 1 159.34 17.58
  Q 159.72 17.02 160.29 16.72
  Q 160.95 16.39 160.81 17.11
  Q 160.60 18.31 159.56 18.11
  Z"
/>
<path fill="#0c9cd8" d="
  M 144.04 18.75
  Q 143.71 18.69 143.27 18.99
  L 143.26 17.71
  Q 143.26 17.07 143.79 17.44
  Q 144.22 17.74 144.04 18.75
  Z"
/>
<path fill="#8e416e" d="
  M 248.71 17.67
  Q 248.90 17.87 248.02 18.75
  L 242.96 18.80
  Q 244.81 17.68 248.71 17.67
  Z"
/>
<path fill="#d2c7d3" d="
  M 80.71 22.39
  Q 79.53 22.51 80.45 20.50
  A 0.37 0.09 -40.2 0 0 79.99 20.73
  Q 78.74 22.09 76.17 22.19
  L 73.59 22.23
  Q 73.18 22.24 73.08 21.84
  L 72.80 20.78
  Q 72.65 20.19 72.30 20.68
  Q 71.71 21.51 71.55 22.51
  L 58.51 21.92
  A 0.52 0.52 0.0 0 1 58.02 21.34
  L 58.31 18.97
  Q 58.38 18.41 58.93 18.33
  Q 60.79 18.05 62.63 18.73
  Q 62.02 19.86 62.03 20.55
  A 0.31 0.31 0.0 0 0 62.63 20.67
  Q 62.94 19.97 62.93 18.85
  L 69.95 18.57
  Q 70.80 19.84 73.55 18.13
  Q 74.01 17.84 74.53 18.04
  Q 78.03 19.39 81.67 18.47
  A 0.69 0.69 0.0 0 1 82.52 19.25
  L 82.10 21.86
  Q 82.03 22.25 81.68 22.42
  Q 81.23 22.63 80.71 22.39
  Z
  M 74.68 19.25
  Q 73.85 19.72 73.99 20.64
  Q 74.07 21.18 74.56 20.95
  Q 75.80 20.38 75.31 19.44
  A 0.46 0.46 0.0 0 0 74.68 19.25
  Z"
/>
<path fill="#d2c7d3" d="
  M 242.96 18.80
  L 248.02 18.75
  Q 250.74 18.10 253.49 18.84
  A 1.64 1.62 42.0 0 0 254.53 18.79
  Q 256.21 18.13 257.34 19.46
  Q 257.70 19.89 257.61 20.44
  C 257.29 22.52 254.94 23.28 253.72 21.24
  Q 253.48 20.84 253.22 21.23
  Q 252.20 22.82 249.71 22.11
  Q 248.78 21.78 247.72 22.46
  Q 245.01 21.60 242.20 22.04
  L 235.40 21.69
  Q 234.84 21.66 234.97 21.12
  L 235.66 18.13
  A 0.59 0.59 0.0 0 1 236.62 17.82
  Q 237.32 18.42 237.28 19.31
  Q 237.25 20.07 237.71 19.47
  L 238.76 18.12
  Q 239.13 17.65 239.67 17.92
  Q 241.30 18.76 242.96 18.80
  Z
  M 251.09 21.04
  Q 251.27 21.28 251.38 21.26
  A 0.68 0.52 -43.7 0 0 251.56 20.07
  L 250.55 20.07
  A 0.26 0.26 0.0 0 0 250.36 20.50
  Q 250.52 20.67 250.72 20.75
  Q 250.94 20.84 251.09 21.04
  Z"
/>
<path fill="#bdd7e7" d="
  M 34.40 20.89
  Q 33.60 20.01 34.49 18.90
  A 0.50 0.50 0.0 0 1 35.21 18.84
  Q 36.05 19.61 35.55 20.72
  A 0.69 0.69 0.0 0 1 34.40 20.89
  Z"
/>
<path fill="#f8ad17" d="
  M 62.63 18.73
  Q 62.72 18.71 62.93 18.85
  Q 62.94 19.97 62.63 20.67
  A 0.31 0.31 0.0 0 1 62.03 20.55
  Q 62.02 19.86 62.63 18.73
  Z"
/>
<path fill="#b6915b" d="
  M 196.78 21.64
  C 196.45 20.66 207.52 17.51 208.76 20.01
  A 0.53 0.53 0.0 0 1 208.20 20.77
  Q 202.48 19.87 197.02 21.76
  Q 196.84 21.82 196.78 21.64
  Z"
/>
<path fill="#f8ad17" d="
  M 74.68 19.25
  A 0.46 0.46 0.0 0 1 75.31 19.44
  Q 75.80 20.38 74.56 20.95
  Q 74.07 21.18 73.99 20.64
  Q 73.85 19.72 74.68 19.25
  Z"
/>
<path fill="#0363a2" d="
  M 148.75 20.14
  L 148.44 21.47
  Q 147.07 23.84 147.95 26.94
  A 0.72 0.72 0.0 0 0 148.66 27.47
  L 156.52 27.34
  Q 156.94 27.33 157.23 27.03
  L 158.05 26.22
  A 0.49 0.48 -31.5 0 1 158.86 26.41
  C 159.40 28.17 160.55 27.25 161.49 27.29
  Q 164.24 27.39 167.02 27.53
  L 169.76 27.28
  Q 170.78 27.10 171.82 27.42
  Q 173.42 27.34 174.67 27.99
  C 175.09 29.71 175.06 30.97 172.92 30.98
  Q 157.43 31.06 141.90 30.97
  A 0.59 0.58 -0.0 0 1 141.31 30.39
  L 141.29 26.05
  L 142.42 19.81
  Q 145.67 20.49 148.75 20.14
  Z"
/>
<path fill="#3489bf" d="
  M 172.63 20.13
  Q 172.38 20.81 172.52 21.62
  L 163.27 21.86
  Q 161.78 21.49 160.38 21.99
  Q 159.23 22.14 158.31 21.82
  L 148.44 21.47
  L 148.75 20.14
  L 172.63 20.13
  Z"
/>
<path fill="#f8ad17" d="
  M 250.72 20.75
  Q 250.52 20.67 250.36 20.50
  A 0.26 0.26 0.0 0 1 250.55 20.07
  L 251.56 20.07
  A 0.68 0.52 -43.7 0 1 251.38 21.26
  Q 251.27 21.28 251.09 21.04
  Q 250.94 20.84 250.72 20.75
  Z"
/>
<path fill="#b6915b" d="
  M 80.71 22.39
  L 76.17 22.19
  Q 78.74 22.09 79.99 20.73
  A 0.37 0.09 -40.2 0 1 80.45 20.50
  Q 79.53 22.51 80.71 22.39
  Z"
/>
<path fill="#bdbdbf" fill-opacity="0.765" d="
  M 109.53 20.10
  Q 110.30 21.62 110.86 21.60
  Q 110.13 23.41 108.10 24.09
  L 107.71 23.50
  Q 107.79 23.24 107.75 22.99
  Q 107.69 22.67 108.02 22.62
  Q 109.42 22.39 109.53 20.10
  Z"
/>
<path fill="#bdd7e7" d="
  M 174.72 20.67
  L 174.76 24.53
  Q 173.05 24.57 173.14 22.83
  Q 173.17 22.24 172.64 22.51
  L 171.36 23.18
  Q 170.80 23.47 171.33 23.81
  Q 173.36 25.12 171.82 27.42
  Q 170.78 27.10 169.76 27.28
  C 169.66 26.64 169.92 26.15 170.63 26.18
  A 0.99 0.94 -38.8 0 0 170.88 24.27
  Q 169.75 24.12 169.78 22.72
  Q 169.79 22.24 169.34 22.42
  L 167.56 23.14
  Q 166.84 23.42 167.46 23.87
  Q 170.08 25.79 167.02 27.53
  Q 164.24 27.39 161.49 27.29
  C 160.55 27.25 159.40 28.17 158.86 26.41
  A 0.49 0.48 -31.5 0 0 158.05 26.22
  L 157.23 27.03
  Q 156.94 27.33 156.52 27.34
  L 148.66 27.47
  A 0.72 0.72 0.0 0 1 147.95 26.94
  Q 147.07 23.84 148.44 21.47
  L 158.31 21.82
  L 156.77 23.48
  Q 156.10 21.65 154.50 23.12
  Q 154.13 23.46 153.67 23.27
  L 152.26 22.70
  A 0.41 0.40 87.2 0 0 151.75 23.27
  Q 151.99 23.74 152.52 23.90
  A 0.48 0.48 0.0 0 1 152.71 24.70
  Q 151.87 25.48 150.71 25.57
  Q 150.36 25.60 150.32 25.24
  L 150.03 22.48
  Q 149.94 21.56 149.52 22.39
  Q 148.75 23.92 148.85 25.65
  A 0.69 0.68 6.9 0 0 149.34 26.26
  Q 151.39 26.90 153.15 25.76
  A 0.93 0.93 0.0 0 1 154.14 25.74
  C 156.76 27.26 158.19 22.97 159.69 25.42
  Q 159.97 25.88 160.46 25.65
  L 160.87 25.45
  A 1.37 1.36 40.6 0 1 161.84 25.38
  L 166.16 26.76
  Q 166.72 26.94 166.67 26.34
  L 166.31 22.67
  Q 166.26 22.13 165.77 22.36
  Q 163.86 23.29 162.57 22.89
  Q 162.51 22.66 162.49 22.48
  Q 162.46 22.11 162.82 22.03
  Q 163.06 21.99 163.27 21.86
  L 172.52 21.62
  L 174.72 20.67
  Z"
/>
<path fill="#b8bdbf" fill-opacity="0.906" d="
  M 163.27 21.86
  Q 163.06 21.99 162.82 22.03
  Q 162.46 22.11 162.49 22.48
  Q 162.51 22.66 162.57 22.89
  Q 162.42 22.38 161.76 23.14
  Q 161.69 22.27 160.38 21.99
  Q 161.78 21.49 163.27 21.86
  Z"
/>
<path fill="#015998" d="
  M 247.72 22.46
  Q 247.65 23.30 248.07 23.78
  L 247.22 24.30
  Q 246.20 23.88 244.78 24.76
  Q 244.53 22.50 242.20 22.04
  Q 245.01 21.60 247.72 22.46
  Z"
/>
<path fill="#3489bf" d="
  M 156.77 23.48
  L 161.76 23.14
  Q 162.42 22.38 162.57 22.89
  Q 163.86 23.29 165.77 22.36
  Q 166.26 22.13 166.31 22.67
  L 166.67 26.34
  Q 166.72 26.94 166.16 26.76
  L 161.84 25.38
  A 1.37 1.36 40.6 0 0 160.87 25.45
  L 160.46 25.65
  Q 159.97 25.88 159.69 25.42
  C 158.19 22.97 156.76 27.26 154.14 25.74
  A 0.93 0.93 0.0 0 0 153.15 25.76
  Q 151.39 26.90 149.34 26.26
  A 0.69 0.68 6.9 0 1 148.85 25.65
  Q 148.75 23.92 149.52 22.39
  Q 149.94 21.56 150.03 22.48
  L 150.32 25.24
  Q 150.36 25.60 150.71 25.57
  Q 151.87 25.48 152.71 24.70
  A 0.48 0.48 0.0 0 0 152.52 23.90
  Q 151.99 23.74 151.75 23.27
  A 0.41 0.40 87.2 0 1 152.26 22.70
  L 153.67 23.27
  Q 154.13 23.46 154.50 23.12
  Q 156.10 21.65 156.77 23.48
  Z
  M 154.32 24.88
  Q 155.27 25.64 155.84 24.58
  A 0.43 0.42 5.6 0 0 155.34 23.98
  L 154.45 24.24
  Q 153.77 24.44 154.32 24.88
  Z"
/>
<path fill="#dff3f9" d="
  M 158.31 21.82
  Q 159.23 22.14 160.38 21.99
  Q 161.69 22.27 161.76 23.14
  L 156.77 23.48
  L 158.31 21.82
  Z"
/>
<path fill="#8e416e" d="
  M 249.71 22.11
  L 248.07 23.78
  Q 247.65 23.30 247.72 22.46
  Q 248.78 21.78 249.71 22.11
  Z"
/>
<path fill="#0c9cd8" d="
  M 169.76 27.28
  L 167.02 27.53
  Q 170.08 25.79 167.46 23.87
  Q 166.84 23.42 167.56 23.14
  L 169.34 22.42
  Q 169.79 22.24 169.78 22.72
  Q 169.75 24.12 170.88 24.27
  A 0.99 0.94 -38.8 0 1 170.63 26.18
  C 169.92 26.15 169.66 26.64 169.76 27.28
  Z"
/>
<path fill="#0c9cd8" d="
  M 174.76 24.53
  L 174.67 27.99
  Q 173.42 27.34 171.82 27.42
  Q 173.36 25.12 171.33 23.81
  Q 170.80 23.47 171.36 23.18
  L 172.64 22.51
  Q 173.17 22.24 173.14 22.83
  Q 173.05 24.57 174.76 24.53
  Z"
/>
<path fill="#f3f3f3" d="
  M 191.98 23.32
  Q 190.88 25.02 191.83 27.72
  Q 190.82 27.89 190.04 27.55
  Q 189.50 27.32 189.50 26.73
  L 189.50 24.26
  A 0.99 0.98 75.6 0 1 190.00 23.40
  Q 191.04 22.81 191.98 23.32
  Z"
/>
<path fill="#bdd7e7" d="
  M 193.18 27.52
  L 192.76 23.32
  Q 193.41 22.94 194.11 23.00
  Q 194.75 23.05 194.75 23.69
  L 194.75 25.01
  Q 194.75 25.78 195.25 25.20
  Q 196.39 23.88 197.82 24.64
  A 0.64 0.64 0.0 0 1 198.04 25.57
  Q 197.43 26.43 197.55 27.48
  Q 197.64 28.33 196.89 27.93
  Q 195.15 27.03 193.18 27.52
  Z"
/>
<path fill="#3489bf" d="
  M 191.98 23.32
  Q 192.38 23.16 192.76 23.32
  L 193.18 27.52
  Q 192.42 27.80 191.83 27.72
  Q 190.88 25.02 191.98 23.32
  Z"
/>
<path fill="#015998" d="
  M 107.71 23.50
  L 108.10 24.09
  Q 108.34 24.87 108.50 24.76
  Q 108.45 26.17 109.23 26.76
  Q 109.73 27.14 109.87 26.53
  L 110.17 25.14
  L 113.63 25.81
  Q 114.13 25.91 114.01 26.41
  Q 113.67 27.86 112.49 28.88
  A 0.47 0.47 0.0 0 1 111.73 28.42
  L 112.06 26.89
  A 0.37 0.37 0.0 0 0 111.40 26.58
  Q 111.12 26.96 110.91 27.38
  Q 110.69 27.84 110.19 27.95
  Q 108.32 28.37 107.74 26.71
  A 0.39 0.38 -32.2 0 0 107.10 26.57
  L 105.91 27.75
  A 0.47 0.46 -22.2 0 1 105.12 27.42
  Q 105.12 25.48 106.02 23.77
  Q 106.20 23.73 106.39 23.69
  Q 107.05 23.94 107.71 23.50
  Z"
/>
<path fill="#dff3f9" d="
  M 202.81 23.62
  L 203.58 23.78
  A 0.51 0.51 0.0 0 1 203.95 24.45
  Q 203.43 25.87 204.06 27.19
  Q 204.32 27.75 203.70 27.75
  L 203.26 27.75
  A 0.68 0.68 0.0 0 1 202.59 27.20
  L 202.05 24.37
  A 0.64 0.64 0.0 0 1 202.81 23.62
  Z"
/>
<path fill="#0c9cd8" d="
  M 116.82 26.60
  L 115.96 27.40
  A 1.07 1.07 0.0 0 1 114.21 26.27
  C 116.15 20.59 118.48 27.98 121.89 24.03
  A 0.39 0.38 70.5 0 1 122.56 24.35
  L 122.02 27.31
  Q 121.92 27.86 121.37 27.91
  L 118.69 28.17
  Q 118.11 28.23 117.89 27.69
  L 117.50 26.75
  Q 117.27 26.17 116.82 26.60
  Z"
/>
<path fill="#bdd7e7" d="
  M 154.32 24.88
  Q 153.77 24.44 154.45 24.24
  L 155.34 23.98
  A 0.43 0.42 5.6 0 1 155.84 24.58
  Q 155.27 25.64 154.32 24.88
  Z"
/>
<path fill="#8e416e" d="
  M 247.22 24.30
  L 246.87 25.73
  Q 246.52 24.89 244.78 24.76
  Q 246.20 23.88 247.22 24.30
  Z"
/>
<path fill="#dff3f9" d="
  M 200.52 25.21
  Q 199.84 26.37 200.93 27.27
  Q 201.51 27.75 200.76 27.75
  L 199.86 27.75
  A 1.49 1.49 0.0 0 1 199.06 25.01
  L 200.27 24.23
  Q 200.76 23.92 200.94 24.47
  Q 201.10 24.94 200.82 24.99
  Q 200.62 25.03 200.52 25.21
  Z"
/>
<path fill="#f3f3f3" d="
  M 206.74 24.46
  Q 206.73 25.39 206.99 24.75
  Q 206.08 26.05 205.96 27.12
  Q 205.92 27.49 205.56 27.50
  Q 205.40 27.50 205.25 27.50
  Q 205.05 27.50 205.04 27.30
  C 204.98 26.51 204.88 23.32 206.74 24.46
  Z"
/>
<path fill="#bdd7e7" d="
  M 206.99 24.75
  Q 206.73 25.39 206.74 24.46
  L 213.93 24.32
  Q 214.47 24.31 214.59 24.84
  L 215.06 26.89
  A 0.50 0.49 -7.2 0 1 214.59 27.49
  L 208.45 27.69
  Q 207.98 27.70 207.83 27.25
  L 206.99 24.75
  Z"
/>
<path fill="#b8bdbf" fill-opacity="0.906" d="
  M 108.50 24.76
  Q 109.44 24.70 110.17 25.14
  L 109.87 26.53
  Q 109.73 27.14 109.23 26.76
  Q 108.45 26.17 108.50 24.76
  Z"
/>
<path fill="#bdbdbf" fill-opacity="0.765" d="
  M 12.32 27.99
  L 13.95 28.01
  Q 14.47 28.01 14.68 28.49
  Q 15.21 29.71 16.48 30.13
  Q 16.97 30.29 17.32 30.68
  L 18.83 32.39
  L 12.73 30.42
  Q 12.28 30.28 12.54 29.87
  Q 13.17 28.90 12.32 27.99
  Z"
/>
<path fill="#86888b" fill-opacity="0.580" d="
  M 123.06 30.70
  L 116.23 30.72
  Q 119.79 25.84 123.06 30.70
  Z"
/>
</svg>
